<svg xmlns="http://www.w3.org/2000/svg" xmlns:xlink="http://www.w3.org/1999/xlink" width="119" height="123" overflow="visible" viewBox="0.023 -0.342 119 123"><defs><linearGradient id="o"><stop offset=".034" stop-color="#0f0"/><stop offset="1" stop-color="#009700"/></linearGradient><linearGradient id="f"><stop offset="0" stop-color="#9e9e9e"/><stop offset="1" stop-color="#616161"/></linearGradient><linearGradient id="g"><stop offset="0" stop-color="#9e9e9e"/><stop offset="1" stop-color="#616161"/></linearGradient><linearGradient id="e"><stop offset=".034" stop-color="#fff"/><stop offset="1" stop-color="#878787"/></linearGradient><linearGradient id="d"><stop offset=".034" stop-color="#fff"/><stop offset="1" stop-color="#b2b2b2"/></linearGradient><linearGradient id="b"><stop offset="0" stop-color="#fff"/><stop offset="1" stop-color="#cfcfcf"/></linearGradient><linearGradient id="a"><stop offset="0" stop-color="#fff"/><stop offset="1" stop-color="#fff" stop-opacity="0"/></linearGradient><linearGradient id="j"><stop offset=".034" stop-color="#fff"/><stop offset="1" stop-color="#b2b2b2"/></linearGradient><linearGradient id="c"><stop offset="0" stop-color="#9e9e9e"/><stop offset="1" stop-color="#616161"/></linearGradient><linearGradient id="m"><stop offset="0" stop-color="#ccc"/><stop offset="1" stop-color="#616161"/></linearGradient><linearGradient id="bS" x1="47.45" x2="42.389" y1="137.211" y2="123.404" gradientTransform="scale(1.98592 .50355)" gradientUnits="userSpaceOnUse" xlink:href="#d"/><linearGradient id="bT" x1="48.538" x2="48.538" y1="135.757" y2="117.738" gradientTransform="scale(1.9367 .51634)" gradientUnits="userSpaceOnUse" xlink:href="#e"/><linearGradient id="bU" x1="23.113" x2="22.389" y1="311.899" y2="298.918" gradientTransform="matrix(4.26614 0 0 .2344 0 -7.5)" gradientUnits="userSpaceOnUse" xlink:href="#c"/><linearGradient id="bV" x1="72.788" x2="72.788" y1="109.271" y2="128.375" gradientTransform="scale(1.33959 .7465)" gradientUnits="userSpaceOnUse" xlink:href="#f"/><linearGradient id="bW" x1="64.425" x2="72.758" y1="109.346" y2="123.267" gradientTransform="scale(1.33959 .7465)" gradientUnits="userSpaceOnUse" xlink:href="#f"/><linearGradient id="bX" x1="106.479" x2="134.771" y1="3.351" y2="65.581" gradientTransform="matrix(.68498 0 0 1.36844 2.857 3.02)" gradientUnits="userSpaceOnUse" xlink:href="#a"/><linearGradient id="bY" x1="47.611" x2="56.111" y1="20.174" y2="53.457" gradientTransform="matrix(1.71814 0 0 .58202 1.496 3.563)" gradientUnits="userSpaceOnUse" xlink:href="#b"/><linearGradient id="bZ" x1="59.365" x2="59.437" y1="40.895" y2="19.193" gradientTransform="matrix(1.58723 0 0 .52868 1.496 5.508)" gradientUnits="userSpaceOnUse" xlink:href="#c"/><linearGradient id="ca" x1="47.611" x2="56.111" y1="20.174" y2="53.457" gradientTransform="matrix(1.71814 0 0 .58202 1.496 14.918)" gradientUnits="userSpaceOnUse" xlink:href="#b"/><linearGradient id="cb" x1="59.365" x2="59.437" y1="40.895" y2="19.193" gradientTransform="matrix(1.58723 0 0 .52868 1.496 16.863)" gradientUnits="userSpaceOnUse" xlink:href="#c"/><linearGradient id="cc" x1="42.007" x2="42.267" y1="60.076" y2="77.76" gradientTransform="matrix(2.01216 0 0 .42964 6.805 3.197)" gradientUnits="userSpaceOnUse" xlink:href="#a"/><linearGradient id="cd" x1="47.611" x2="56.111" y1="20.174" y2="53.457" gradientTransform="matrix(1.71814 0 0 .58202 1.496 26.235)" gradientUnits="userSpaceOnUse" xlink:href="#b"/><linearGradient id="ce" x1="59.365" x2="59.437" y1="40.895" y2="19.193" gradientTransform="matrix(1.58723 0 0 .52868 1.496 28.18)" gradientUnits="userSpaceOnUse" xlink:href="#c"/><linearGradient id="cf" x1="37.82" x2="37.82" y1="45.16" y2="56.679" gradientTransform="matrix(2.35514 0 0 .34327 6.471 3.145)" gradientUnits="userSpaceOnUse" xlink:href="#c"/><linearGradient id="cg" x1="42.007" x2="42.267" y1="60.076" y2="77.76" gradientTransform="matrix(2.01216 0 0 .42964 6.805 -8.522)" gradientUnits="userSpaceOnUse" xlink:href="#a"/><linearGradient id="ch" x1="42.007" x2="42.267" y1="60.076" y2="77.76" gradientTransform="matrix(2.01216 0 0 .42964 6.805 14.447)" gradientUnits="userSpaceOnUse" xlink:href="#a"/><radialGradient id="ci" cx="96.709" cy="85.741" r="8.34" fx="96.709" fy="85.741" gradientUnits="userSpaceOnUse" xlink:href="#d"/><linearGradient id="cj" x1="97.76" x2="97.76" y1="85.921" y2="75.003" gradientUnits="userSpaceOnUse" xlink:href="#g"/><linearGradient id="ck" x1="59.451" x2="59.451" y1="126.196" y2="94.688" gradientUnits="userSpaceOnUse" xlink:href="#f"/><linearGradient id="cl" x1="59.463" x2="59.463" y1="102.881" y2="123.654" gradientUnits="userSpaceOnUse" xlink:href="#h"/><linearGradient id="cm" x1="44.869" x2="73.438" y1="89.282" y2="120.732" gradientUnits="userSpaceOnUse" xlink:href="#e"/><linearGradient id="cn" x1="58.565" x2="58.565" y1="109.229" y2="77.888" gradientUnits="userSpaceOnUse" xlink:href="#c"/><linearGradient id="co" x1="58.566" x2="58.566" y1="104.072" y2="89.385" gradientUnits="userSpaceOnUse" xlink:href="#b"/><linearGradient id="cp" x1="43.09" x2="75.629" y1="73.366" y2="109.186" gradientUnits="userSpaceOnUse" xlink:href="#i"/><linearGradient id="cq" x1="59.45" x2="59.45" y1="99.837" y2="13.052" gradientUnits="userSpaceOnUse" xlink:href="#g"/><linearGradient id="cr" x1="58.511" x2="62.727" y1="69.588" y2="-38.736" gradientUnits="userSpaceOnUse" xlink:href="#d"/><linearGradient id="cs" x1="43.417" x2="119.845" y1="29.41" y2="105.837" gradientUnits="userSpaceOnUse" xlink:href="#j"/><linearGradient id="ct" x1="1.636" x2="1.636" y1="-25.028" y2="56.389" gradientUnits="userSpaceOnUse" xlink:href="#a"/><linearGradient id="cu" x1="59.773" x2="59.773" y1=".028" y2="59.228" gradientUnits="userSpaceOnUse" xlink:href="#k"/><radialGradient id="cv" cx="-13.746" cy="95.49" r="61.608" fx="-13.746" fy="95.49" gradientTransform="matrix(1.0388 0 0 1 70.262 0)" gradientUnits="userSpaceOnUse" xlink:href="#l"/><linearGradient id="cw" x1="59.382" x2="59.382" y1="60.042" y2="-28.418" gradientUnits="userSpaceOnUse" xlink:href="#m"/><radialGradient id="cx" cx="-16.73" cy="15.37" r="67.633" fx="-16.73" fy="15.37" gradientTransform="matrix(1.0463 0 0 .9215 74.949 -5.729)" gradientUnits="userSpaceOnUse" xlink:href="#n"/><linearGradient id="cy" x1="96.291" x2="96.291" y1="73.5" y2="85.462" gradientUnits="userSpaceOnUse" xlink:href="#a"/><radialGradient id="cz" cx="96.709" cy="85.741" r="8.34" fx="96.709" fy="85.741" gradientUnits="userSpaceOnUse" xlink:href="#d"/><linearGradient id="cA" x1="97.76" x2="97.76" y1="85.921" y2="75.003" gradientUnits="userSpaceOnUse" xlink:href="#g"/><linearGradient id="cB" x1="96.291" x2="96.291" y1="73.5" y2="85.462" gradientUnits="userSpaceOnUse" xlink:href="#a"/><radialGradient id="cC" cx="96.709" cy="85.741" r="8.34" fx="96.709" fy="85.741" gradientUnits="userSpaceOnUse" xlink:href="#o"/><linearGradient id="cD" x1="97.76" x2="97.76" y1="85.921" y2="75.003" gradientUnits="userSpaceOnUse" xlink:href="#g"/><linearGradient id="cE" x1="96.291" x2="96.291" y1="73.5" y2="85.462" gradientUnits="userSpaceOnUse" xlink:href="#a"/><linearGradient id="cF" x1="167.027" x2="167.027" y1="72.893" y2="7.541" gradientTransform="scale(.65438 1.52817)" gradientUnits="userSpaceOnUse" xlink:href="#c"/><linearGradient id="cG" x1="131.02" x2="131.02" y1="69.246" y2="6.213" gradientTransform="matrix(.65438 0 0 1.52817 1.496 3.563)" gradientUnits="userSpaceOnUse" xlink:href="#c"/><linearGradient id="cH" x1="151.293" x2="174.058" y1="29.794" y2="65.576" gradientTransform="matrix(.68061 0 0 1.58727 -4.577 2.672)" gradientUnits="userSpaceOnUse" xlink:href="#j"/><linearGradient id="cI" x1="147.334" x2="147.334" y1="66.202" y2="5.227" gradientTransform="matrix(.6645 0 0 1.56222 -.367 3.946)" gradientUnits="userSpaceOnUse" xlink:href="#j"/><linearGradient id="cJ" x1="47.45" x2="42.389" y1="137.211" y2="123.404" gradientTransform="scale(1.98592 .50355)" gradientUnits="userSpaceOnUse" xlink:href="#d"/><linearGradient id="cK" x1="48.538" x2="48.538" y1="135.757" y2="117.738" gradientTransform="scale(1.9367 .51634)" gradientUnits="userSpaceOnUse" xlink:href="#e"/><linearGradient id="cL" x1="23.113" x2="22.389" y1="311.899" y2="298.918" gradientTransform="matrix(4.26614 0 0 .2344 0 -7.5)" gradientUnits="userSpaceOnUse" xlink:href="#c"/><linearGradient id="cM" x1="72.788" x2="72.788" y1="109.271" y2="128.375" gradientTransform="scale(1.33959 .7465)" gradientUnits="userSpaceOnUse" xlink:href="#f"/><linearGradient id="cN" x1="64.425" x2="72.758" y1="109.346" y2="123.267" gradientTransform="scale(1.33959 .7465)" gradientUnits="userSpaceOnUse" xlink:href="#f"/><linearGradient id="cO" x1="106.479" x2="134.771" y1="3.351" y2="65.581" gradientTransform="matrix(.68498 0 0 1.36844 2.857 3.02)" gradientUnits="userSpaceOnUse" xlink:href="#a"/><linearGradient id="cP" x1="47.611" x2="56.111" y1="20.174" y2="53.457" gradientTransform="matrix(1.71814 0 0 .58202 1.496 3.563)" gradientUnits="userSpaceOnUse" xlink:href="#b"/><linearGradient id="cQ" x1="59.365" x2="59.437" y1="40.895" y2="19.193" gradientTransform="matrix(1.58723 0 0 .52868 1.496 5.508)" gradientUnits="userSpaceOnUse" xlink:href="#c"/><linearGradient id="cR" x1="47.611" x2="56.111" y1="20.174" y2="53.457" gradientTransform="matrix(1.71814 0 0 .58202 1.496 14.918)" gradientUnits="userSpaceOnUse" xlink:href="#b"/><linearGradient id="cS" x1="59.365" x2="59.437" y1="40.895" y2="19.193" gradientTransform="matrix(1.58723 0 0 .52868 1.496 16.863)" gradientUnits="userSpaceOnUse" xlink:href="#c"/><linearGradient id="cT" x1="42.007" x2="42.267" y1="60.076" y2="77.76" gradientTransform="matrix(2.01216 0 0 .42964 6.805 3.197)" gradientUnits="userSpaceOnUse" xlink:href="#a"/><linearGradient id="cU" x1="47.611" x2="56.111" y1="20.174" y2="53.457" gradientTransform="matrix(1.71814 0 0 .58202 1.496 26.235)" gradientUnits="userSpaceOnUse" xlink:href="#b"/><linearGradient id="cV" x1="59.365" x2="59.437" y1="40.895" y2="19.193" gradientTransform="matrix(1.58723 0 0 .52868 1.496 28.18)" gradientUnits="userSpaceOnUse" xlink:href="#c"/><linearGradient id="cW" x1="37.82" x2="37.82" y1="45.16" y2="56.679" gradientTransform="matrix(2.35514 0 0 .34327 6.471 3.145)" gradientUnits="userSpaceOnUse" xlink:href="#c"/><linearGradient id="cX" x1="42.007" x2="42.267" y1="60.076" y2="77.76" gradientTransform="matrix(2.01216 0 0 .42964 6.805 -8.522)" gradientUnits="userSpaceOnUse" xlink:href="#a"/><linearGradient id="cY" x1="42.007" x2="42.267" y1="60.076" y2="77.76" gradientTransform="matrix(2.01216 0 0 .42964 6.805 14.447)" gradientUnits="userSpaceOnUse" xlink:href="#a"/><radialGradient id="cZ" cx="96.709" cy="85.741" r="8.34" fx="96.709" fy="85.741" gradientUnits="userSpaceOnUse" xlink:href="#d"/><linearGradient id="da" x1="97.76" x2="97.76" y1="85.921" y2="75.003" gradientUnits="userSpaceOnUse" xlink:href="#g"/><linearGradient id="db" x1="59.451" x2="59.451" y1="126.196" y2="94.688" gradientUnits="userSpaceOnUse" xlink:href="#f"/><linearGradient id="dc" x1="59.463" x2="59.463" y1="102.881" y2="123.654" gradientUnits="userSpaceOnUse" xlink:href="#h"/><linearGradient id="dd" x1="44.869" x2="73.438" y1="89.282" y2="120.732" gradientUnits="userSpaceOnUse" xlink:href="#e"/><linearGradient id="de" x1="58.565" x2="58.565" y1="109.229" y2="77.888" gradientUnits="userSpaceOnUse" xlink:href="#c"/><linearGradient id="df" x1="58.566" x2="58.566" y1="104.072" y2="89.385" gradientUnits="userSpaceOnUse" xlink:href="#b"/><linearGradient id="dg" x1="43.09" x2="75.629" y1="73.366" y2="109.186" gradientUnits="userSpaceOnUse" xlink:href="#i"/><linearGradient id="dh" x1="59.45" x2="59.45" y1="99.837" y2="13.052" gradientUnits="userSpaceOnUse" xlink:href="#g"/><linearGradient id="di" x1="58.511" x2="62.727" y1="69.588" y2="-38.736" gradientUnits="userSpaceOnUse" xlink:href="#d"/><linearGradient id="dj" x1="43.417" x2="119.845" y1="29.41" y2="105.837" gradientUnits="userSpaceOnUse" xlink:href="#j"/><linearGradient id="dk" x1="1.636" x2="1.636" y1="-25.028" y2="56.389" gradientUnits="userSpaceOnUse" xlink:href="#a"/><linearGradient id="dl" x1="59.773" x2="59.773" y1=".028" y2="59.228" gradientUnits="userSpaceOnUse" xlink:href="#k"/><radialGradient id="dm" cx="-13.746" cy="95.49" r="61.608" fx="-13.746" fy="95.49" gradientTransform="matrix(1.0388 0 0 1 70.262 0)" gradientUnits="userSpaceOnUse" xlink:href="#l"/><linearGradient id="dn" x1="59.382" x2="59.382" y1="60.042" y2="-28.418" gradientUnits="userSpaceOnUse" xlink:href="#m"/><radialGradient id="do" cx="-16.73" cy="15.37" r="67.633" fx="-16.73" fy="15.37" gradientTransform="matrix(1.0463 0 0 .9215 74.949 -5.729)" gradientUnits="userSpaceOnUse" xlink:href="#n"/><linearGradient id="dp" x1="96.291" x2="96.291" y1="73.5" y2="85.462" gradientUnits="userSpaceOnUse" xlink:href="#a"/><radialGradient id="dq" cx="96.709" cy="85.741" r="8.34" fx="96.709" fy="85.741" gradientUnits="userSpaceOnUse" xlink:href="#d"/><linearGradient id="dr" x1="97.76" x2="97.76" y1="85.921" y2="75.003" gradientUnits="userSpaceOnUse" xlink:href="#g"/><linearGradient id="ds" x1="96.291" x2="96.291" y1="73.5" y2="85.462" gradientUnits="userSpaceOnUse" xlink:href="#a"/><radialGradient id="dt" cx="96.709" cy="85.741" r="8.34" fx="96.709" fy="85.741" gradientUnits="userSpaceOnUse" xlink:href="#o"/><linearGradient id="du" x1="97.76" x2="97.76" y1="85.921" y2="75.003" gradientUnits="userSpaceOnUse" xlink:href="#g"/><linearGradient id="dv" x1="96.291" x2="96.291" y1="73.5" y2="85.462" gradientUnits="userSpaceOnUse" xlink:href="#a"/><linearGradient id="dw" x1="167.027" x2="167.027" y1="72.893" y2="7.541" gradientTransform="scale(.65438 1.52817)" gradientUnits="userSpaceOnUse" xlink:href="#c"/><linearGradient id="dx" x1="131.02" x2="131.02" y1="69.246" y2="6.213" gradientTransform="matrix(.65438 0 0 1.52817 1.496 3.563)" gradientUnits="userSpaceOnUse" xlink:href="#c"/><linearGradient id="dy" x1="151.293" x2="174.058" y1="29.794" y2="65.576" gradientTransform="matrix(.68061 0 0 1.58727 -4.577 2.672)" gradientUnits="userSpaceOnUse" xlink:href="#j"/><linearGradient id="dz" x1="147.334" x2="147.334" y1="66.202" y2="5.227" gradientTransform="matrix(.6645 0 0 1.56222 -.367 3.946)" gradientUnits="userSpaceOnUse" xlink:href="#j"/><linearGradient id="dA" x1="47.45" x2="42.389" y1="137.211" y2="123.404" gradientTransform="scale(1.98592 .50355)" gradientUnits="userSpaceOnUse" xlink:href="#d"/><linearGradient id="dB" x1="48.538" x2="48.538" y1="135.757" y2="117.738" gradientTransform="scale(1.9367 .51634)" gradientUnits="userSpaceOnUse" xlink:href="#e"/><linearGradient id="dC" x1="23.113" x2="22.389" y1="311.899" y2="298.918" gradientTransform="matrix(4.26614 0 0 .2344 0 -7.5)" gradientUnits="userSpaceOnUse" xlink:href="#c"/><linearGradient id="dD" x1="72.788" x2="72.788" y1="109.271" y2="128.375" gradientTransform="scale(1.33959 .7465)" gradientUnits="userSpaceOnUse" xlink:href="#f"/><linearGradient id="dE" x1="64.425" x2="72.758" y1="109.346" y2="123.267" gradientTransform="scale(1.33959 .7465)" gradientUnits="userSpaceOnUse" xlink:href="#f"/><linearGradient id="dF" x1="106.479" x2="134.771" y1="3.351" y2="65.581" gradientTransform="matrix(.68498 0 0 1.36844 2.857 3.02)" gradientUnits="userSpaceOnUse" xlink:href="#a"/><linearGradient id="dG" x1="47.611" x2="56.111" y1="20.174" y2="53.457" gradientTransform="matrix(1.71814 0 0 .58202 1.496 3.563)" gradientUnits="userSpaceOnUse" xlink:href="#b"/><linearGradient id="dH" x1="59.365" x2="59.437" y1="40.895" y2="19.193" gradientTransform="matrix(1.58723 0 0 .52868 1.496 5.508)" gradientUnits="userSpaceOnUse" xlink:href="#c"/><linearGradient id="dI" x1="47.611" x2="56.111" y1="20.174" y2="53.457" gradientTransform="matrix(1.71814 0 0 .58202 1.496 14.918)" gradientUnits="userSpaceOnUse" xlink:href="#b"/><linearGradient id="dJ" x1="59.365" x2="59.437" y1="40.895" y2="19.193" gradientTransform="matrix(1.58723 0 0 .52868 1.496 16.863)" gradientUnits="userSpaceOnUse" xlink:href="#c"/><linearGradient id="dK" x1="42.007" x2="42.267" y1="60.076" y2="77.76" gradientTransform="matrix(2.01216 0 0 .42964 6.805 3.197)" gradientUnits="userSpaceOnUse" xlink:href="#a"/><linearGradient id="dL" x1="47.611" x2="56.111" y1="20.174" y2="53.457" gradientTransform="matrix(1.71814 0 0 .58202 1.496 26.235)" gradientUnits="userSpaceOnUse" xlink:href="#b"/><linearGradient id="dM" x1="59.365" x2="59.437" y1="40.895" y2="19.193" gradientTransform="matrix(1.58723 0 0 .52868 1.496 28.18)" gradientUnits="userSpaceOnUse" xlink:href="#c"/><linearGradient id="dN" x1="37.82" x2="37.82" y1="45.16" y2="56.679" gradientTransform="matrix(2.35514 0 0 .34327 6.471 3.145)" gradientUnits="userSpaceOnUse" xlink:href="#c"/><linearGradient id="dO" x1="42.007" x2="42.267" y1="60.076" y2="77.76" gradientTransform="matrix(2.01216 0 0 .42964 6.805 -8.522)" gradientUnits="userSpaceOnUse" xlink:href="#a"/><linearGradient id="dP" x1="42.007" x2="42.267" y1="60.076" y2="77.76" gradientTransform="matrix(2.01216 0 0 .42964 6.805 14.447)" gradientUnits="userSpaceOnUse" xlink:href="#a"/><radialGradient id="dQ" cx="96.709" cy="85.741" r="8.34" fx="96.709" fy="85.741" gradientUnits="userSpaceOnUse" xlink:href="#d"/><linearGradient id="dR" x1="97.76" x2="97.76" y1="85.921" y2="75.003" gradientUnits="userSpaceOnUse" xlink:href="#g"/><linearGradient id="dS" x1="59.451" x2="59.451" y1="126.196" y2="94.688" gradientUnits="userSpaceOnUse" xlink:href="#f"/><linearGradient id="dT" x1="59.463" x2="59.463" y1="102.881" y2="123.654" gradientUnits="userSpaceOnUse" xlink:href="#h"/><linearGradient id="dU" x1="44.869" x2="73.438" y1="89.282" y2="120.732" gradientUnits="userSpaceOnUse" xlink:href="#e"/><linearGradient id="dV" x1="58.565" x2="58.565" y1="109.229" y2="77.888" gradientUnits="userSpaceOnUse" xlink:href="#c"/><linearGradient id="dW" x1="58.566" x2="58.566" y1="104.072" y2="89.385" gradientUnits="userSpaceOnUse" xlink:href="#b"/><linearGradient id="dX" x1="43.09" x2="75.629" y1="73.366" y2="109.186" gradientUnits="userSpaceOnUse" xlink:href="#i"/><linearGradient id="dY" x1="59.45" x2="59.45" y1="99.837" y2="13.052" gradientUnits="userSpaceOnUse" xlink:href="#g"/><linearGradient id="dZ" x1="58.511" x2="62.727" y1="69.588" y2="-38.736" gradientUnits="userSpaceOnUse" xlink:href="#d"/><linearGradient id="ea" x1="43.417" x2="119.845" y1="29.41" y2="105.837" gradientUnits="userSpaceOnUse" xlink:href="#j"/><linearGradient id="eb" x1="1.636" x2="1.636" y1="-25.028" y2="56.389" gradientUnits="userSpaceOnUse" xlink:href="#a"/><linearGradient id="ec" x1="59.773" x2="59.773" y1=".028" y2="59.228" gradientUnits="userSpaceOnUse" xlink:href="#k"/><radialGradient id="ed" cx="-13.746" cy="95.49" r="61.608" fx="-13.746" fy="95.49" gradientTransform="matrix(1.0388 0 0 1 70.262 0)" gradientUnits="userSpaceOnUse" xlink:href="#l"/><linearGradient id="ee" x1="59.382" x2="59.382" y1="60.042" y2="-28.418" gradientUnits="userSpaceOnUse" xlink:href="#m"/><radialGradient id="ef" cx="-16.73" cy="15.37" r="67.633" fx="-16.73" fy="15.37" gradientTransform="matrix(1.0463 0 0 .9215 74.949 -5.729)" gradientUnits="userSpaceOnUse" xlink:href="#n"/><linearGradient id="eg" x1="96.291" x2="96.291" y1="73.5" y2="85.462" gradientUnits="userSpaceOnUse" xlink:href="#a"/><radialGradient id="eh" cx="96.709" cy="85.741" r="8.34" fx="96.709" fy="85.741" gradientUnits="userSpaceOnUse" xlink:href="#d"/><linearGradient id="ei" x1="97.76" x2="97.76" y1="85.921" y2="75.003" gradientUnits="userSpaceOnUse" xlink:href="#g"/><linearGradient id="ej" x1="96.291" x2="96.291" y1="73.5" y2="85.462" gradientUnits="userSpaceOnUse" xlink:href="#a"/><radialGradient id="ek" cx="96.709" cy="85.741" r="8.34" fx="96.709" fy="85.741" gradientUnits="userSpaceOnUse" xlink:href="#o"/><linearGradient id="el" x1="97.76" x2="97.76" y1="85.921" y2="75.003" gradientUnits="userSpaceOnUse" xlink:href="#g"/><linearGradient id="em" x1="96.291" x2="96.291" y1="73.5" y2="85.462" gradientUnits="userSpaceOnUse" xlink:href="#a"/><linearGradient id="aX" x1="167.027" x2="167.027" y1="72.893" y2="7.541" gradientTransform="scale(.65438 1.52817)" gradientUnits="userSpaceOnUse" xlink:href="#c"/><linearGradient id="aY" x1="131.02" x2="131.02" y1="69.246" y2="6.213" gradientTransform="matrix(.65438 0 0 1.52817 1.496 3.563)" gradientUnits="userSpaceOnUse" xlink:href="#c"/><linearGradient id="aZ" x1="151.293" x2="174.058" y1="29.794" y2="65.576" gradientTransform="matrix(.68061 0 0 1.58727 -4.577 2.672)" gradientUnits="userSpaceOnUse" xlink:href="#j"/><linearGradient id="ba" x1="147.334" x2="147.334" y1="66.202" y2="5.227" gradientTransform="matrix(.6645 0 0 1.56222 -.367 3.946)" gradientUnits="userSpaceOnUse" xlink:href="#j"/><linearGradient id="bb" x1="47.45" x2="42.389" y1="137.211" y2="123.404" gradientTransform="scale(1.98592 .50355)" gradientUnits="userSpaceOnUse" xlink:href="#d"/><linearGradient id="bc" x1="48.538" x2="48.538" y1="135.757" y2="117.738" gradientTransform="scale(1.9367 .51634)" gradientUnits="userSpaceOnUse" xlink:href="#e"/><linearGradient id="bd" x1="23.113" x2="22.389" y1="311.899" y2="298.918" gradientTransform="matrix(4.26614 0 0 .2344 0 -7.5)" gradientUnits="userSpaceOnUse" xlink:href="#c"/><linearGradient id="be" x1="72.788" x2="72.788" y1="109.271" y2="128.375" gradientTransform="scale(1.33959 .7465)" gradientUnits="userSpaceOnUse" xlink:href="#f"/><linearGradient id="bf" x1="64.425" x2="72.758" y1="109.346" y2="123.267" gradientTransform="scale(1.33959 .7465)" gradientUnits="userSpaceOnUse" xlink:href="#f"/><linearGradient id="bg" x1="106.479" x2="134.771" y1="3.351" y2="65.581" gradientTransform="matrix(.68498 0 0 1.36844 2.857 3.02)" gradientUnits="userSpaceOnUse" xlink:href="#a"/><linearGradient id="bh" x1="47.611" x2="56.111" y1="20.174" y2="53.457" gradientTransform="matrix(1.71814 0 0 .58202 1.496 3.563)" gradientUnits="userSpaceOnUse" xlink:href="#b"/><linearGradient id="bi" x1="59.365" x2="59.437" y1="40.895" y2="19.193" gradientTransform="matrix(1.58723 0 0 .52868 1.496 5.508)" gradientUnits="userSpaceOnUse" xlink:href="#c"/><linearGradient id="bj" x1="47.611" x2="56.111" y1="20.174" y2="53.457" gradientTransform="matrix(1.71814 0 0 .58202 1.496 14.918)" gradientUnits="userSpaceOnUse" xlink:href="#b"/><linearGradient id="bk" x1="59.365" x2="59.437" y1="40.895" y2="19.193" gradientTransform="matrix(1.58723 0 0 .52868 1.496 16.863)" gradientUnits="userSpaceOnUse" xlink:href="#c"/><linearGradient id="bl" x1="42.007" x2="42.267" y1="60.076" y2="77.76" gradientTransform="matrix(2.01216 0 0 .42964 6.805 3.197)" gradientUnits="userSpaceOnUse" xlink:href="#a"/><linearGradient id="bm" x1="47.611" x2="56.111" y1="20.174" y2="53.457" gradientTransform="matrix(1.71814 0 0 .58202 1.496 26.235)" gradientUnits="userSpaceOnUse" xlink:href="#b"/><linearGradient id="bn" x1="59.365" x2="59.437" y1="40.895" y2="19.193" gradientTransform="matrix(1.58723 0 0 .52868 1.496 28.18)" gradientUnits="userSpaceOnUse" xlink:href="#c"/><linearGradient id="bo" x1="37.82" x2="37.82" y1="45.16" y2="56.679" gradientTransform="matrix(2.35514 0 0 .34327 6.471 3.145)" gradientUnits="userSpaceOnUse" xlink:href="#c"/><linearGradient id="bp" x1="42.007" x2="42.267" y1="60.076" y2="77.76" gradientTransform="matrix(2.01216 0 0 .42964 6.805 -8.522)" gradientUnits="userSpaceOnUse" xlink:href="#a"/><linearGradient id="bq" x1="42.007" x2="42.267" y1="60.076" y2="77.76" gradientTransform="matrix(2.01216 0 0 .42964 6.805 14.447)" gradientUnits="userSpaceOnUse" xlink:href="#a"/><radialGradient id="br" cx="96.709" cy="85.741" r="8.34" fx="96.709" fy="85.741" gradientUnits="userSpaceOnUse" xlink:href="#d"/><linearGradient id="bs" x1="97.76" x2="97.76" y1="85.921" y2="75.003" gradientUnits="userSpaceOnUse" xlink:href="#g"/><linearGradient id="bt" x1="59.451" x2="59.451" y1="126.196" y2="94.688" gradientUnits="userSpaceOnUse" xlink:href="#f"/><linearGradient id="bu" x1="59.463" x2="59.463" y1="102.881" y2="123.654" gradientUnits="userSpaceOnUse" xlink:href="#h"/><linearGradient id="bv" x1="44.869" x2="73.438" y1="89.282" y2="120.732" gradientUnits="userSpaceOnUse" xlink:href="#e"/><linearGradient id="bw" x1="58.565" x2="58.565" y1="109.229" y2="77.888" gradientUnits="userSpaceOnUse" xlink:href="#c"/><linearGradient id="bx" x1="58.566" x2="58.566" y1="104.072" y2="89.385" gradientUnits="userSpaceOnUse" xlink:href="#b"/><linearGradient id="by" x1="43.09" x2="75.629" y1="73.366" y2="109.186" gradientUnits="userSpaceOnUse" xlink:href="#i"/><linearGradient id="bz" x1="59.45" x2="59.45" y1="99.837" y2="13.052" gradientUnits="userSpaceOnUse" xlink:href="#g"/><linearGradient id="bA" x1="58.511" x2="62.727" y1="69.588" y2="-38.736" gradientUnits="userSpaceOnUse" xlink:href="#d"/><linearGradient id="bB" x1="43.417" x2="119.845" y1="29.41" y2="105.837" gradientUnits="userSpaceOnUse" xlink:href="#j"/><linearGradient id="bC" x1="1.636" x2="1.636" y1="-25.028" y2="56.389" gradientUnits="userSpaceOnUse" xlink:href="#a"/><linearGradient id="bD" x1="59.773" x2="59.773" y1=".028" y2="59.228" gradientUnits="userSpaceOnUse" xlink:href="#k"/><radialGradient id="bE" cx="-13.746" cy="95.49" r="61.608" fx="-13.746" fy="95.49" gradientTransform="matrix(1.0388 0 0 1 70.262 0)" gradientUnits="userSpaceOnUse" xlink:href="#l"/><linearGradient id="bF" x1="59.382" x2="59.382" y1="60.042" y2="-28.418" gradientUnits="userSpaceOnUse" xlink:href="#m"/><radialGradient id="bG" cx="-16.73" cy="15.37" r="67.633" fx="-16.73" fy="15.37" gradientTransform="matrix(1.0463 0 0 .9215 74.949 -5.729)" gradientUnits="userSpaceOnUse" xlink:href="#n"/><linearGradient id="bH" x1="96.291" x2="96.291" y1="73.5" y2="85.462" gradientUnits="userSpaceOnUse" xlink:href="#a"/><radialGradient id="bI" cx="96.709" cy="85.741" r="8.34" fx="96.709" fy="85.741" gradientUnits="userSpaceOnUse" xlink:href="#d"/><linearGradient id="bJ" x1="97.76" x2="97.76" y1="85.921" y2="75.003" gradientUnits="userSpaceOnUse" xlink:href="#g"/><linearGradient id="bK" x1="96.291" x2="96.291" y1="73.5" y2="85.462" gradientUnits="userSpaceOnUse" xlink:href="#a"/><radialGradient id="bL" cx="96.709" cy="85.741" r="8.34" fx="96.709" fy="85.741" gradientUnits="userSpaceOnUse" xlink:href="#o"/><linearGradient id="bM" x1="97.76" x2="97.76" y1="85.921" y2="75.003" gradientUnits="userSpaceOnUse" xlink:href="#g"/><linearGradient id="bN" x1="96.291" x2="96.291" y1="73.5" y2="85.462" gradientUnits="userSpaceOnUse" xlink:href="#a"/><linearGradient id="bO" x1="167.027" x2="167.027" y1="72.893" y2="7.541" gradientTransform="scale(.65438 1.52817)" gradientUnits="userSpaceOnUse" xlink:href="#c"/><linearGradient id="bP" x1="131.02" x2="131.02" y1="69.246" y2="6.213" gradientTransform="matrix(.65438 0 0 1.52817 1.496 3.563)" gradientUnits="userSpaceOnUse" xlink:href="#c"/><linearGradient id="bQ" x1="151.293" x2="174.058" y1="29.794" y2="65.576" gradientTransform="matrix(.68061 0 0 1.58727 -4.577 2.672)" gradientUnits="userSpaceOnUse" xlink:href="#j"/><linearGradient id="bR" x1="147.334" x2="147.334" y1="66.202" y2="5.227" gradientTransform="matrix(.6645 0 0 1.56222 -.367 3.946)" gradientUnits="userSpaceOnUse" xlink:href="#j"/><linearGradient id="p" x1="167.027" x2="167.027" y1="72.893" y2="7.541" gradientTransform="scale(.65438 1.52817)" gradientUnits="userSpaceOnUse" xlink:href="#c"/><linearGradient id="q" x1="131.02" x2="131.02" y1="69.246" y2="6.213" gradientTransform="matrix(.65438 0 0 1.52817 1.496 3.563)" gradientUnits="userSpaceOnUse" xlink:href="#c"/><linearGradient id="r" x1="151.293" x2="174.058" y1="29.794" y2="65.576" gradientTransform="matrix(.68061 0 0 1.58727 -4.577 2.672)" gradientUnits="userSpaceOnUse" xlink:href="#j"/><linearGradient id="s" x1="147.334" x2="147.334" y1="66.202" y2="5.227" gradientTransform="matrix(.6645 0 0 1.56222 -.367 3.946)" gradientUnits="userSpaceOnUse" xlink:href="#j"/><linearGradient id="t" x1="47.45" x2="42.389" y1="137.211" y2="123.404" gradientTransform="scale(1.98592 .50355)" gradientUnits="userSpaceOnUse" xlink:href="#d"/><linearGradient id="u" x1="48.538" x2="48.538" y1="135.757" y2="117.738" gradientTransform="scale(1.9367 .51634)" gradientUnits="userSpaceOnUse" xlink:href="#e"/><linearGradient id="v" x1="23.113" x2="22.389" y1="311.899" y2="298.918" gradientTransform="matrix(4.26614 0 0 .2344 0 -7.5)" gradientUnits="userSpaceOnUse" xlink:href="#c"/><linearGradient id="w" x1="72.788" x2="72.788" y1="109.271" y2="128.375" gradientTransform="scale(1.33959 .7465)" gradientUnits="userSpaceOnUse" xlink:href="#f"/><linearGradient id="x" x1="64.425" x2="72.758" y1="109.346" y2="123.267" gradientTransform="scale(1.33959 .7465)" gradientUnits="userSpaceOnUse" xlink:href="#f"/><linearGradient id="y" x1="106.479" x2="134.771" y1="3.351" y2="65.581" gradientTransform="matrix(.68498 0 0 1.36844 2.857 3.02)" gradientUnits="userSpaceOnUse" xlink:href="#a"/><linearGradient id="z" x1="47.611" x2="56.111" y1="20.174" y2="53.457" gradientTransform="matrix(1.71814 0 0 .58202 1.496 3.563)" gradientUnits="userSpaceOnUse" xlink:href="#b"/><linearGradient id="A" x1="59.365" x2="59.437" y1="40.895" y2="19.193" gradientTransform="matrix(1.58723 0 0 .52868 1.496 5.508)" gradientUnits="userSpaceOnUse" xlink:href="#c"/><linearGradient id="B" x1="47.611" x2="56.111" y1="20.174" y2="53.457" gradientTransform="matrix(1.71814 0 0 .58202 1.496 14.918)" gradientUnits="userSpaceOnUse" xlink:href="#b"/><linearGradient id="C" x1="59.365" x2="59.437" y1="40.895" y2="19.193" gradientTransform="matrix(1.58723 0 0 .52868 1.496 16.863)" gradientUnits="userSpaceOnUse" xlink:href="#c"/><linearGradient id="D" x1="42.007" x2="42.267" y1="60.076" y2="77.76" gradientTransform="matrix(2.01216 0 0 .42964 6.805 3.197)" gradientUnits="userSpaceOnUse" xlink:href="#a"/><linearGradient id="E" x1="47.611" x2="56.111" y1="20.174" y2="53.457" gradientTransform="matrix(1.71814 0 0 .58202 1.496 26.235)" gradientUnits="userSpaceOnUse" xlink:href="#b"/><linearGradient id="F" x1="59.365" x2="59.437" y1="40.895" y2="19.193" gradientTransform="matrix(1.58723 0 0 .52868 1.496 28.18)" gradientUnits="userSpaceOnUse" xlink:href="#c"/><linearGradient id="G" x1="37.82" x2="37.82" y1="45.16" y2="56.679" gradientTransform="matrix(2.35514 0 0 .34327 6.471 3.145)" gradientUnits="userSpaceOnUse" xlink:href="#c"/><linearGradient id="H" x1="42.007" x2="42.267" y1="60.076" y2="77.76" gradientTransform="matrix(2.01216 0 0 .42964 6.805 -8.522)" gradientUnits="userSpaceOnUse" xlink:href="#a"/><linearGradient id="I" x1="42.007" x2="42.267" y1="60.076" y2="77.76" gradientTransform="matrix(2.01216 0 0 .42964 6.805 14.447)" gradientUnits="userSpaceOnUse" xlink:href="#a"/><radialGradient id="J" cx="96.709" cy="85.741" r="8.34" fx="96.709" fy="85.741" gradientUnits="userSpaceOnUse" xlink:href="#d"/><linearGradient id="K" x1="97.76" x2="97.76" y1="85.921" y2="75.003" gradientUnits="userSpaceOnUse" xlink:href="#g"/><linearGradient id="L" x1="59.451" x2="59.451" y1="126.196" y2="94.688" gradientUnits="userSpaceOnUse" xlink:href="#f"/><linearGradient id="M" x1="59.463" x2="59.463" y1="102.881" y2="123.654" gradientUnits="userSpaceOnUse" xlink:href="#h"/><linearGradient id="N" x1="44.869" x2="73.438" y1="89.282" y2="120.732" gradientUnits="userSpaceOnUse" xlink:href="#e"/><linearGradient id="O" x1="58.565" x2="58.565" y1="109.229" y2="77.888" gradientUnits="userSpaceOnUse" xlink:href="#c"/><linearGradient id="P" x1="58.566" x2="58.566" y1="104.072" y2="89.385" gradientUnits="userSpaceOnUse" xlink:href="#b"/><linearGradient id="Q" x1="43.09" x2="75.629" y1="73.366" y2="109.186" gradientUnits="userSpaceOnUse" xlink:href="#i"/><linearGradient id="R" x1="59.45" x2="59.45" y1="99.837" y2="13.052" gradientUnits="userSpaceOnUse" xlink:href="#g"/><linearGradient id="S" x1="58.511" x2="62.727" y1="69.588" y2="-38.736" gradientUnits="userSpaceOnUse" xlink:href="#d"/><linearGradient id="T" x1="43.417" x2="119.845" y1="29.41" y2="105.837" gradientUnits="userSpaceOnUse" xlink:href="#j"/><linearGradient id="U" x1="1.636" x2="1.636" y1="-25.028" y2="56.389" gradientUnits="userSpaceOnUse" xlink:href="#a"/><linearGradient id="V" x1="59.773" x2="59.773" y1=".028" y2="59.228" gradientUnits="userSpaceOnUse" xlink:href="#k"/><radialGradient id="W" cx="-13.746" cy="95.49" r="61.608" fx="-13.746" fy="95.49" gradientTransform="matrix(1.0388 0 0 1 70.262 0)" gradientUnits="userSpaceOnUse" xlink:href="#l"/><linearGradient id="X" x1="59.382" x2="59.382" y1="60.042" y2="-28.418" gradientUnits="userSpaceOnUse" xlink:href="#m"/><radialGradient id="Y" cx="-16.73" cy="15.37" r="67.633" fx="-16.73" fy="15.37" gradientTransform="matrix(1.0463 0 0 .9215 74.949 -5.729)" gradientUnits="userSpaceOnUse" xlink:href="#n"/><linearGradient id="Z" x1="96.291" x2="96.291" y1="73.5" y2="85.462" gradientUnits="userSpaceOnUse" xlink:href="#a"/><radialGradient id="aa" cx="96.709" cy="85.741" r="8.34" fx="96.709" fy="85.741" gradientUnits="userSpaceOnUse" xlink:href="#d"/><linearGradient id="ab" x1="97.76" x2="97.76" y1="85.921" y2="75.003" gradientUnits="userSpaceOnUse" xlink:href="#g"/><linearGradient id="ac" x1="96.291" x2="96.291" y1="73.5" y2="85.462" gradientUnits="userSpaceOnUse" xlink:href="#a"/><radialGradient id="ad" cx="96.709" cy="85.741" r="8.34" fx="96.709" fy="85.741" gradientUnits="userSpaceOnUse" xlink:href="#o"/><linearGradient id="ae" x1="97.76" x2="97.76" y1="85.921" y2="75.003" gradientUnits="userSpaceOnUse" xlink:href="#g"/><linearGradient id="af" x1="96.291" x2="96.291" y1="73.5" y2="85.462" gradientUnits="userSpaceOnUse" xlink:href="#a"/><linearGradient id="ag" x1="167.027" x2="167.027" y1="72.893" y2="7.541" gradientTransform="scale(.65438 1.52817)" gradientUnits="userSpaceOnUse" xlink:href="#c"/><linearGradient id="ah" x1="131.02" x2="131.02" y1="69.246" y2="6.213" gradientTransform="matrix(.65438 0 0 1.52817 1.496 3.563)" gradientUnits="userSpaceOnUse" xlink:href="#c"/><linearGradient id="ai" x1="151.293" x2="174.058" y1="29.794" y2="65.576" gradientTransform="matrix(.68061 0 0 1.58727 -4.577 2.672)" gradientUnits="userSpaceOnUse" xlink:href="#j"/><linearGradient id="aj" x1="147.334" x2="147.334" y1="66.202" y2="5.227" gradientTransform="matrix(.6645 0 0 1.56222 -.367 3.946)" gradientUnits="userSpaceOnUse" xlink:href="#j"/><linearGradient id="ak" x1="47.45" x2="42.389" y1="137.211" y2="123.404" gradientTransform="scale(1.98592 .50355)" gradientUnits="userSpaceOnUse" xlink:href="#d"/><linearGradient id="al" x1="48.538" x2="48.538" y1="135.757" y2="117.738" gradientTransform="scale(1.9367 .51634)" gradientUnits="userSpaceOnUse" xlink:href="#e"/><linearGradient id="am" x1="23.113" x2="22.389" y1="311.899" y2="298.918" gradientTransform="matrix(4.26614 0 0 .2344 0 -7.5)" gradientUnits="userSpaceOnUse" xlink:href="#c"/><linearGradient id="an" x1="72.788" x2="72.788" y1="109.271" y2="128.375" gradientTransform="scale(1.33959 .7465)" gradientUnits="userSpaceOnUse" xlink:href="#f"/><linearGradient id="ao" x1="64.425" x2="72.758" y1="109.346" y2="123.267" gradientTransform="scale(1.33959 .7465)" gradientUnits="userSpaceOnUse" xlink:href="#f"/><linearGradient id="ap" x1="106.479" x2="134.771" y1="3.351" y2="65.581" gradientTransform="matrix(.68498 0 0 1.36844 2.857 3.02)" gradientUnits="userSpaceOnUse" xlink:href="#a"/><linearGradient id="aq" x1="47.611" x2="56.111" y1="20.174" y2="53.457" gradientTransform="matrix(1.71814 0 0 .58202 1.496 3.563)" gradientUnits="userSpaceOnUse" xlink:href="#b"/><linearGradient id="ar" x1="59.365" x2="59.437" y1="40.895" y2="19.193" gradientTransform="matrix(1.58723 0 0 .52868 1.496 5.508)" gradientUnits="userSpaceOnUse" xlink:href="#c"/><linearGradient id="as" x1="47.611" x2="56.111" y1="20.174" y2="53.457" gradientTransform="matrix(1.71814 0 0 .58202 1.496 14.918)" gradientUnits="userSpaceOnUse" xlink:href="#b"/><linearGradient id="at" x1="59.365" x2="59.437" y1="40.895" y2="19.193" gradientTransform="matrix(1.58723 0 0 .52868 1.496 16.863)" gradientUnits="userSpaceOnUse" xlink:href="#c"/><linearGradient id="au" x1="42.007" x2="42.267" y1="60.076" y2="77.76" gradientTransform="matrix(2.01216 0 0 .42964 6.805 3.197)" gradientUnits="userSpaceOnUse" xlink:href="#a"/><linearGradient id="av" x1="47.611" x2="56.111" y1="20.174" y2="53.457" gradientTransform="matrix(1.71814 0 0 .58202 1.496 26.235)" gradientUnits="userSpaceOnUse" xlink:href="#b"/><linearGradient id="aw" x1="59.365" x2="59.437" y1="40.895" y2="19.193" gradientTransform="matrix(1.58723 0 0 .52868 1.496 28.18)" gradientUnits="userSpaceOnUse" xlink:href="#c"/><linearGradient id="ax" x1="37.82" x2="37.82" y1="45.16" y2="56.679" gradientTransform="matrix(2.35514 0 0 .34327 6.471 3.145)" gradientUnits="userSpaceOnUse" xlink:href="#c"/><linearGradient id="ay" x1="42.007" x2="42.267" y1="60.076" y2="77.76" gradientTransform="matrix(2.01216 0 0 .42964 6.805 -8.522)" gradientUnits="userSpaceOnUse" xlink:href="#a"/><linearGradient id="az" x1="42.007" x2="42.267" y1="60.076" y2="77.76" gradientTransform="matrix(2.01216 0 0 .42964 6.805 14.447)" gradientUnits="userSpaceOnUse" xlink:href="#a"/><radialGradient id="aA" cx="96.709" cy="85.741" r="8.34" fx="96.709" fy="85.741" gradientUnits="userSpaceOnUse" xlink:href="#d"/><linearGradient id="aB" x1="97.76" x2="97.76" y1="85.921" y2="75.003" gradientUnits="userSpaceOnUse" xlink:href="#g"/><linearGradient id="aC" x1="59.451" x2="59.451" y1="126.196" y2="94.688" gradientUnits="userSpaceOnUse" xlink:href="#f"/><linearGradient id="aD" x1="59.463" x2="59.463" y1="102.881" y2="123.654" gradientUnits="userSpaceOnUse" xlink:href="#h"/><linearGradient id="aE" x1="44.869" x2="73.438" y1="89.282" y2="120.732" gradientUnits="userSpaceOnUse" xlink:href="#e"/><linearGradient id="aF" x1="58.565" x2="58.565" y1="109.229" y2="77.888" gradientUnits="userSpaceOnUse" xlink:href="#c"/><linearGradient id="aG" x1="58.566" x2="58.566" y1="104.072" y2="89.385" gradientUnits="userSpaceOnUse" xlink:href="#b"/><linearGradient id="aH" x1="43.09" x2="75.629" y1="73.366" y2="109.186" gradientUnits="userSpaceOnUse" xlink:href="#i"/><linearGradient id="aI" x1="59.45" x2="59.45" y1="99.837" y2="13.052" gradientUnits="userSpaceOnUse" xlink:href="#g"/><linearGradient id="aJ" x1="58.511" x2="62.727" y1="69.588" y2="-38.736" gradientUnits="userSpaceOnUse" xlink:href="#d"/><linearGradient id="aK" x1="43.417" x2="119.845" y1="29.41" y2="105.837" gradientUnits="userSpaceOnUse" xlink:href="#j"/><linearGradient id="aL" x1="1.636" x2="1.636" y1="-25.028" y2="56.389" gradientUnits="userSpaceOnUse" xlink:href="#a"/><linearGradient id="aM" x1="59.773" x2="59.773" y1=".028" y2="59.228" gradientUnits="userSpaceOnUse" xlink:href="#k"/><radialGradient id="aN" cx="-13.746" cy="95.49" r="61.608" fx="-13.746" fy="95.49" gradientTransform="matrix(1.0388 0 0 1 70.262 0)" gradientUnits="userSpaceOnUse" xlink:href="#l"/><linearGradient id="aO" x1="59.382" x2="59.382" y1="60.042" y2="-28.418" gradientUnits="userSpaceOnUse" xlink:href="#m"/><radialGradient id="aP" cx="-16.73" cy="15.37" r="67.633" fx="-16.73" fy="15.37" gradientTransform="matrix(1.0463 0 0 .9215 74.949 -5.729)" gradientUnits="userSpaceOnUse" xlink:href="#n"/><linearGradient id="aQ" x1="96.291" x2="96.291" y1="73.5" y2="85.462" gradientUnits="userSpaceOnUse" xlink:href="#a"/><radialGradient id="aR" cx="96.709" cy="85.741" r="8.34" fx="96.709" fy="85.741" gradientUnits="userSpaceOnUse" xlink:href="#d"/><linearGradient id="aS" x1="97.76" x2="97.76" y1="85.921" y2="75.003" gradientUnits="userSpaceOnUse" xlink:href="#g"/><linearGradient id="aT" x1="96.291" x2="96.291" y1="73.5" y2="85.462" gradientUnits="userSpaceOnUse" xlink:href="#a"/><radialGradient id="aU" cx="96.709" cy="85.741" r="8.34" fx="96.709" fy="85.741" gradientUnits="userSpaceOnUse" xlink:href="#o"/><linearGradient id="aV" x1="97.76" x2="97.76" y1="85.921" y2="75.003" gradientUnits="userSpaceOnUse" xlink:href="#g"/><linearGradient id="aW" x1="96.291" x2="96.291" y1="73.5" y2="85.462" gradientUnits="userSpaceOnUse" xlink:href="#a"/><linearGradient id="en" x1="167.027" x2="167.027" y1="72.893" y2="7.541" gradientTransform="matrix(.0995 0 0 .23237 50.489 51.752)" gradientUnits="userSpaceOnUse" xlink:href="#c"/><linearGradient id="eo" x1="131.02" x2="131.02" y1="69.246" y2="6.213" gradientTransform="matrix(.0995 0 0 .23237 50.716 52.294)" gradientUnits="userSpaceOnUse" xlink:href="#c"/><linearGradient id="ep" x1="151.293" x2="174.058" y1="29.794" y2="65.576" gradientTransform="matrix(.1035 0 0 .24135 49.793 52.158)" gradientUnits="userSpaceOnUse" xlink:href="#j"/><linearGradient id="eq" x1="147.334" x2="147.334" y1="66.202" y2="5.227" gradientTransform="matrix(.10104 0 0 .23754 50.433 52.352)" gradientUnits="userSpaceOnUse" xlink:href="#j"/><linearGradient id="er" x1="47.45" x2="42.389" y1="137.211" y2="123.404" gradientTransform="matrix(.30197 0 0 .07657 50.489 51.752)" gradientUnits="userSpaceOnUse" xlink:href="#d"/><linearGradient id="es" x1="48.538" x2="48.538" y1="135.757" y2="117.738" gradientTransform="matrix(.29449 0 0 .07851 50.489 51.752)" gradientUnits="userSpaceOnUse" xlink:href="#e"/><linearGradient id="et" x1="23.113" x2="22.389" y1="311.899" y2="298.918" gradientTransform="matrix(.6487 0 0 .03564 50.489 50.612)" gradientUnits="userSpaceOnUse" xlink:href="#c"/><linearGradient id="eu" x1="72.788" x2="72.788" y1="109.271" y2="128.375" gradientTransform="matrix(.2037 0 0 .1135 50.489 51.752)" gradientUnits="userSpaceOnUse" xlink:href="#f"/><linearGradient id="ev" x1="64.425" x2="72.758" y1="109.346" y2="123.267" gradientTransform="matrix(.2037 0 0 .1135 50.489 51.752)" gradientUnits="userSpaceOnUse" xlink:href="#f"/><linearGradient id="ew" x1="106.479" x2="134.771" y1="3.351" y2="65.581" gradientTransform="matrix(.10416 0 0 .20808 50.923 52.211)" gradientUnits="userSpaceOnUse" xlink:href="#a"/><linearGradient id="ex" x1="47.611" x2="56.111" y1="20.174" y2="53.457" gradientTransform="matrix(.26125 0 0 .0885 50.716 52.294)" gradientUnits="userSpaceOnUse" xlink:href="#b"/><linearGradient id="ey" x1="59.365" x2="59.437" y1="40.895" y2="19.193" gradientTransform="matrix(.24135 0 0 .08039 50.716 52.59)" gradientUnits="userSpaceOnUse" xlink:href="#c"/><linearGradient id="ez" x1="47.611" x2="56.111" y1="20.174" y2="53.457" gradientTransform="matrix(.26125 0 0 .0885 50.716 54.02)" gradientUnits="userSpaceOnUse" xlink:href="#b"/><linearGradient id="eA" x1="59.365" x2="59.437" y1="40.895" y2="19.193" gradientTransform="matrix(.24135 0 0 .08039 50.716 54.316)" gradientUnits="userSpaceOnUse" xlink:href="#c"/><linearGradient id="eB" x1="42.007" x2="42.267" y1="60.076" y2="77.76" gradientTransform="matrix(.30596 0 0 .06533 51.524 52.238)" gradientUnits="userSpaceOnUse" xlink:href="#a"/><linearGradient id="eC" x1="47.611" x2="56.111" y1="20.174" y2="53.457" gradientTransform="matrix(.26125 0 0 .0885 50.716 55.741)" gradientUnits="userSpaceOnUse" xlink:href="#b"/><linearGradient id="eD" x1="59.365" x2="59.437" y1="40.895" y2="19.193" gradientTransform="matrix(.24135 0 0 .08039 50.716 56.037)" gradientUnits="userSpaceOnUse" xlink:href="#c"/><linearGradient id="eE" x1="37.82" x2="37.82" y1="45.16" y2="56.679" gradientTransform="matrix(.35811 0 0 .0522 51.473 52.23)" gradientUnits="userSpaceOnUse" xlink:href="#c"/><linearGradient id="eF" x1="42.007" x2="42.267" y1="60.076" y2="77.76" gradientTransform="matrix(.30596 0 0 .06533 51.524 50.456)" gradientUnits="userSpaceOnUse" xlink:href="#a"/><linearGradient id="eG" x1="42.007" x2="42.267" y1="60.076" y2="77.76" gradientTransform="matrix(.30596 0 0 .06533 51.524 53.949)" gradientUnits="userSpaceOnUse" xlink:href="#a"/><radialGradient id="eH" cx="96.709" cy="85.741" r="8.34" fx="96.709" fy="85.741" gradientUnits="userSpaceOnUse" xlink:href="#d"/><linearGradient id="eI" x1="97.76" x2="97.76" y1="85.921" y2="75.003" gradientUnits="userSpaceOnUse" xlink:href="#g"/><linearGradient id="eJ" x1="96.291" x2="96.291" y1="73.5" y2="85.462" gradientUnits="userSpaceOnUse" xlink:href="#a"/><radialGradient id="eK" cx="96.709" cy="85.741" r="8.34" fx="96.709" fy="85.741" gradientUnits="userSpaceOnUse" xlink:href="#d"/><linearGradient id="eL" x1="97.76" x2="97.76" y1="85.921" y2="75.003" gradientUnits="userSpaceOnUse" xlink:href="#g"/><linearGradient id="eM" x1="96.291" x2="96.291" y1="73.5" y2="85.462" gradientUnits="userSpaceOnUse" xlink:href="#a"/><radialGradient id="eN" cx="96.709" cy="85.741" r="8.34" fx="96.709" fy="85.741" gradientUnits="userSpaceOnUse" xlink:href="#o"/><linearGradient id="eO" x1="97.76" x2="97.76" y1="85.921" y2="75.003" gradientUnits="userSpaceOnUse" xlink:href="#g"/><linearGradient id="eP" x1="96.291" x2="96.291" y1="73.5" y2="85.462" gradientUnits="userSpaceOnUse" xlink:href="#a"/></defs><g transform="matrix(.15206 0 0 .15206 13.19 51.752)"><rect width="42.827" height="101.886" x="75.297" y="10.857" fill="url(#p)" stroke="url(#q)" stroke-linecap="round" stroke-linejoin="round" stroke-width="1.402" rx="4.319" ry="4.319"/><rect width="41.66" height="98.975" x="75.88" y="11.373" fill="url(#r)" stroke="url(#s)" stroke-linecap="round" stroke-linejoin="round" stroke-width=".764" rx="4.319" ry="4.319"/><path fill="url(#t)" stroke="url(#u)" stroke-linecap="round" stroke-linejoin="round" stroke-width=".625" d="M81.469 61.219a2.344 2.344 0 0 0-2.344 2.343c0 1.295 1.049 2.313 2.344 2.313h9.156c.923 2.479 3.263 4.25 6.063 4.25 2.799 0 5.17-1.771 6.093-4.25h9.125c1.295 0 2.344-1.018 2.344-2.313a2.344 2.344 0 0 0-2.344-2.343H81.47z"/><rect width="28.438" height="1.563" x="82.523" y="62.814" fill="url(#v)" rx="0" ry="1.328"/><path fill="url(#w)" stroke="url(#x)" stroke-linecap="round" stroke-linejoin="round" stroke-width=".875" d="M96.75 81.813c-2.428 0-4.48 1.327-5.719 3.218h-2.937c-2.393 0-4.313 1.656-4.313 3.719 0 2.063 1.92 3.719 4.313 3.719h2.937c1.24 1.891 3.29 3.219 5.719 3.219 2.426 0 4.448-1.332 5.688-3.22h2.624c2.393 0 4.313-1.655 4.313-3.718 0-2.063-1.92-3.719-4.313-3.719h-2.624c-1.24-1.887-3.262-3.218-5.688-3.219z"/><path fill="url(#y)" fill-rule="evenodd" d="M80.492 14.034a4.162 4.162 0 0 0-4.175 4.175v76.697c24.343-2.403 20.432-35.581 40.33-37.94V18.209a4.162 4.162 0 0 0-4.175-4.175h-31.98z"/><rect width="35.118" height="11.318" x="79.136" y="15.97" fill="url(#z)" stroke="url(#A)" stroke-linecap="round" stroke-linejoin="round" stroke-width=".875" rx="3" ry="3"/><rect width="35.118" height="11.318" x="79.136" y="27.325" fill="url(#B)" stroke="url(#C)" stroke-linecap="round" stroke-linejoin="round" stroke-width=".875" rx="3" ry="3"/><path fill="url(#D)" d="M83.164 28.591a2.783 2.783 0 0 0-2.789 2.79v4.184c15.865-.043 29.04-1.644 32.659-3.806v-.378a2.783 2.783 0 0 0-2.79-2.79h-27.08z"/><rect width="35.118" height="11.318" x="79.136" y="38.642" fill="url(#E)" stroke="url(#F)" stroke-linecap="round" stroke-linejoin="round" stroke-width=".875" rx="3" ry="3"/><rect width="28.672" height="3.54" x="82.196" y="18.855" fill="none" stroke="url(#G)" stroke-linecap="round" stroke-linejoin="round" stroke-width=".787" rx="1" ry="1"/><path fill="url(#H)" d="M83.164 16.873a2.783 2.783 0 0 0-2.789 2.789v4.184c15.865-.043 29.04-1.644 32.659-3.806v-.378a2.783 2.783 0 0 0-2.79-2.79h-27.08z"/><path fill="url(#I)" d="M83.164 39.841a2.783 2.783 0 0 0-2.789 2.79v4.184c15.865-.043 29.04-1.644 32.659-3.806v-.378a2.783 2.783 0 0 0-2.79-2.79h-27.08z"/><path fill="url(#J)" stroke="url(#K)" stroke-linecap="round" stroke-linejoin="round" stroke-width=".806" d="M102.21 80.783a5.313 5.313 0 1 1-10.624 0 5.313 5.313 0 1 1 10.624 0z" transform="matrix(.93056 0 0 .93056 6.573 13.657)"/><path fill="none" d="M23.878 97.857c3.042.43 6.513-2.122 8.172-5.825-.187-2.862-1.761-5.04-4.276-5.392-2.806-.393-5.955 1.6-7.891 4.701-.341 3.382 1.22 6.127 3.995 6.516z"/><g transform="matrix(.7397 0 0 .7397 0 22.618)"><path fill="url(#L)" d="M100.112 106.448c0 9.111-18.206 16.498-40.663 16.498-22.456 0-40.661-7.387-40.661-16.498S36.993 89.95 59.449 89.95c22.457 0 40.663 7.387 40.663 16.498z"/><linearGradient id="h" x1="59.463" x2="59.463" y1="102.881" y2="123.654" gradientUnits="userSpaceOnUse"><stop offset="0" stop-color="#fff"/><stop offset="1" stop-color="#cfcfcf"/></linearGradient><path fill="url(#M)" d="M98.757 106.08c0 7.85-17.591 14.209-39.292 14.209s-39.294-6.359-39.294-14.209c0-7.848 17.593-14.208 39.294-14.208 21.701 0 39.292 6.36 39.292 14.208z"/><path fill="url(#N)" d="M82.453 104.359c0 2.913-10.693 5.278-23.886 5.278-13.194 0-23.89-2.365-23.89-5.278 0-2.918 10.696-5.279 23.89-5.279 13.193 0 23.886 2.361 23.886 5.279z" opacity=".5"/><path fill="url(#O)" d="M82.453 89.584c0 9.064-10.693 16.412-23.886 16.412-13.194 0-23.89-7.348-23.89-16.412 0-9.062 10.696-16.409 23.89-16.409 13.193 0 23.886 7.347 23.886 16.409z"/><path fill="url(#P)" d="M80.805 90.05c0 8.435-9.958 15.275-22.238 15.275-12.284 0-22.239-6.841-22.239-15.275 0-8.438 9.956-15.279 22.239-15.279 12.28 0 22.238 6.84 22.238 15.279z"/><linearGradient id="i" x1="43.09" x2="75.629" y1="73.366" y2="109.186" gradientUnits="userSpaceOnUse"><stop offset=".034" stop-color="#fff"/><stop offset="1" stop-color="#878787"/></linearGradient><path fill="url(#Q)" d="M82.49 94.028H34.886v-6.982H82.49v6.982z" opacity=".5"/><path fill="url(#R)" d="M11.394 0C5.112 0 0 4.92 0 10.97v68.946c0 6.048 5.112 10.969 11.394 10.969h96.111c6.286 0 11.395-4.921 11.395-10.969V10.97C118.9 4.921 113.792 0 107.505 0H11.394M2.709 79.916V10.97c0-4.611 3.896-8.36 8.685-8.36h96.111c4.792 0 8.686 3.749 8.686 8.36v68.946c0 4.608-3.894 8.359-8.686 8.359H11.394c-4.79 0-8.685-3.751-8.685-8.359z"/><path fill="url(#S)" d="M117.546 79.916c0 5.337-4.494 9.664-10.041 9.664H11.394c-5.543 0-10.039-4.327-10.039-9.664V10.97c0-5.338 4.495-9.666 10.039-9.666h96.111c5.547 0 10.041 4.328 10.041 9.666v68.946z"/><path fill="url(#T)" d="M116.468 79.228c0 5.191-4.373 9.398-9.764 9.398H12.198c-5.393 0-9.765-4.207-9.765-9.398V11.656c0-5.19 4.373-9.399 9.765-9.399h94.506c5.391 0 9.764 4.209 9.764 9.399v67.572z"/><path fill="url(#U)" d="M.84 59.228c0 3.656.479 7.201 1.372 10.584.07.012.149.024.221.039V28.958C1.404 32.572.84 55.291.84 59.228z"/><linearGradient id="k" x1="59.773" x2="59.773" y1=".028" y2="59.228" gradientUnits="userSpaceOnUse"><stop offset="0%" stop-color="#fff"/><stop offset="100%" stop-color="#fff" stop-opacity="0"/></linearGradient><path fill="url(#V)" d="M105.987 3.161H13.56c-5.198 0-9.408 4.052-9.408 9.055v56.756c6.837 1.2 31.921 5.445 49.996-18.007 21.559-27.975 53.451-24.699 61.247-26.647V12.216c0-5.003-4.213-9.055-9.408-9.055z"/><radialGradient id="l" cx="-13.746" cy="95.49" r="61.608" fx="-13.746" fy="95.49" gradientTransform="matrix(1.0388 0 0 1 70.262 0)" gradientUnits="userSpaceOnUse"><stop offset="0" stop-color="#85caff"/><stop offset="1" stop-color="#003da9"/></radialGradient><path fill="url(#W)" d="M107.036 78.971H11.625V11.927h95.411v67.044z"/><path fill="url(#X)" d="M107.139 11.897H11.625v66.914h1.505V13.385h94.008v-1.488h.001z"/><path fill="#fff" d="M105.777 11.893v65.571H11.619v1.486h94.158v.041h1.504V11.893h-1.504z"/><radialGradient id="n" cx="-16.73" cy="15.37" r="67.633" fx="-16.73" fy="15.37" gradientTransform="matrix(1.0463 0 0 .9215 74.949 -5.729)" gradientUnits="userSpaceOnUse"><stop offset="0" stop-color="#85caff"/><stop offset="1" stop-color="#003da9"/></radialGradient><path fill="url(#Y)" d="M14.255 25.888c0 13.779 20.237 24.954 45.202 24.954 24.967 0 45.208-11.174 45.208-24.954 0-4.603-2.27-8.912-6.211-12.618H20.462c-3.941 3.707-6.207 8.015-6.207 12.618z"/></g><path fill="url(#Z)" d="M102.21 80.783a5.313 5.313 0 1 1-10.624 0 5.313 5.313 0 1 1 10.624 0z" transform="matrix(.65114 0 0 .54085 33.57 43.927)"/><path fill="url(#aa)" stroke="url(#ab)" stroke-linecap="round" stroke-linejoin="round" stroke-width="1.578" d="M102.21 80.783a5.313 5.313 0 1 1-10.624 0 5.313 5.313 0 1 1 10.624 0z" transform="matrix(.3168 0 0 .3168 74.441 62.99)"/><path fill="url(#ac)" d="M102.21 80.783a5.313 5.313 0 1 1-10.624 0 5.313 5.313 0 1 1 10.624 0z" transform="matrix(.19664 0 0 .16333 86.058 75.03)"/><path fill="url(#ad)" stroke="url(#ae)" stroke-linecap="round" stroke-linejoin="round" stroke-width="1.578" d="M102.21 80.783a5.313 5.313 0 1 1-10.624 0 5.313 5.313 0 1 1 10.624 0z" transform="matrix(.3168 0 0 .3168 56.941 62.99)"/><path fill="url(#af)" d="M102.21 80.783a5.313 5.313 0 1 1-10.624 0 5.313 5.313 0 1 1 10.624 0z" transform="matrix(.19664 0 0 .16333 68.558 75.03)"/></g><g transform="matrix(.15206 0 0 .15206 87.789 51.752)"><rect width="42.827" height="101.886" x="75.297" y="10.857" fill="url(#ag)" stroke="url(#ah)" stroke-linecap="round" stroke-linejoin="round" stroke-width="1.402" rx="4.319" ry="4.319"/><rect width="41.66" height="98.975" x="75.88" y="11.373" fill="url(#ai)" stroke="url(#aj)" stroke-linecap="round" stroke-linejoin="round" stroke-width=".764" rx="4.319" ry="4.319"/><path fill="url(#ak)" stroke="url(#al)" stroke-linecap="round" stroke-linejoin="round" stroke-width=".625" d="M81.469 61.219a2.344 2.344 0 0 0-2.344 2.343c0 1.295 1.049 2.313 2.344 2.313h9.156c.923 2.479 3.263 4.25 6.063 4.25 2.799 0 5.17-1.771 6.093-4.25h9.125c1.295 0 2.344-1.018 2.344-2.313a2.344 2.344 0 0 0-2.344-2.343H81.47z"/><rect width="28.438" height="1.563" x="82.523" y="62.814" fill="url(#am)" rx="0" ry="1.328"/><path fill="url(#an)" stroke="url(#ao)" stroke-linecap="round" stroke-linejoin="round" stroke-width=".875" d="M96.75 81.813c-2.428 0-4.48 1.327-5.719 3.218h-2.937c-2.393 0-4.313 1.656-4.313 3.719 0 2.063 1.92 3.719 4.313 3.719h2.937c1.24 1.891 3.29 3.219 5.719 3.219 2.426 0 4.448-1.332 5.688-3.22h2.624c2.393 0 4.313-1.655 4.313-3.718 0-2.063-1.92-3.719-4.313-3.719h-2.624c-1.24-1.887-3.262-3.218-5.688-3.219z"/><path fill="url(#ap)" fill-rule="evenodd" d="M80.492 14.034a4.162 4.162 0 0 0-4.175 4.175v76.697c24.343-2.403 20.432-35.581 40.33-37.94V18.209a4.162 4.162 0 0 0-4.175-4.175h-31.98z"/><rect width="35.118" height="11.318" x="79.136" y="15.97" fill="url(#aq)" stroke="url(#ar)" stroke-linecap="round" stroke-linejoin="round" stroke-width=".875" rx="3" ry="3"/><rect width="35.118" height="11.318" x="79.136" y="27.325" fill="url(#as)" stroke="url(#at)" stroke-linecap="round" stroke-linejoin="round" stroke-width=".875" rx="3" ry="3"/><path fill="url(#au)" d="M83.164 28.591a2.783 2.783 0 0 0-2.789 2.79v4.184c15.865-.043 29.04-1.644 32.659-3.806v-.378a2.783 2.783 0 0 0-2.79-2.79h-27.08z"/><rect width="35.118" height="11.318" x="79.136" y="38.642" fill="url(#av)" stroke="url(#aw)" stroke-linecap="round" stroke-linejoin="round" stroke-width=".875" rx="3" ry="3"/><rect width="28.672" height="3.54" x="82.196" y="18.855" fill="none" stroke="url(#ax)" stroke-linecap="round" stroke-linejoin="round" stroke-width=".787" rx="1" ry="1"/><path fill="url(#ay)" d="M83.164 16.873a2.783 2.783 0 0 0-2.789 2.789v4.184c15.865-.043 29.04-1.644 32.659-3.806v-.378a2.783 2.783 0 0 0-2.79-2.79h-27.08z"/><path fill="url(#az)" d="M83.164 39.841a2.783 2.783 0 0 0-2.789 2.79v4.184c15.865-.043 29.04-1.644 32.659-3.806v-.378a2.783 2.783 0 0 0-2.79-2.79h-27.08z"/><path fill="url(#aA)" stroke="url(#aB)" stroke-linecap="round" stroke-linejoin="round" stroke-width=".806" d="M102.21 80.783a5.313 5.313 0 1 1-10.624 0 5.313 5.313 0 1 1 10.624 0z" transform="matrix(.93056 0 0 .93056 6.573 13.657)"/><path fill="none" d="M23.878 97.857c3.042.43 6.513-2.122 8.172-5.825-.187-2.862-1.761-5.04-4.276-5.392-2.806-.393-5.955 1.6-7.891 4.701-.341 3.382 1.22 6.127 3.995 6.516z"/><path fill="url(#aC)" d="M100.112 106.448c0 9.111-18.206 16.498-40.663 16.498-22.456 0-40.661-7.387-40.661-16.498S36.993 89.95 59.449 89.95c22.457 0 40.663 7.387 40.663 16.498z" transform="matrix(.7397 0 0 .7397 0 22.618)"/><path fill="url(#aD)" d="M98.757 106.08c0 7.85-17.591 14.209-39.292 14.209s-39.294-6.359-39.294-14.209c0-7.848 17.593-14.208 39.294-14.208 21.701 0 39.292 6.36 39.292 14.208z" transform="matrix(.7397 0 0 .7397 0 22.618)"/><path fill="url(#aE)" d="M82.453 104.359c0 2.913-10.693 5.278-23.886 5.278-13.194 0-23.89-2.365-23.89-5.278 0-2.918 10.696-5.279 23.89-5.279 13.193 0 23.886 2.361 23.886 5.279z" opacity=".5" transform="matrix(.7397 0 0 .7397 0 22.618)"/><path fill="url(#aF)" d="M82.453 89.584c0 9.064-10.693 16.412-23.886 16.412-13.194 0-23.89-7.348-23.89-16.412 0-9.062 10.696-16.409 23.89-16.409 13.193 0 23.886 7.347 23.886 16.409z" transform="matrix(.7397 0 0 .7397 0 22.618)"/><path fill="url(#aG)" d="M80.805 90.05c0 8.435-9.958 15.275-22.238 15.275-12.284 0-22.239-6.841-22.239-15.275 0-8.438 9.956-15.279 22.239-15.279 12.28 0 22.238 6.84 22.238 15.279z" transform="matrix(.7397 0 0 .7397 0 22.618)"/><path fill="url(#aH)" d="M82.49 94.028H34.886v-6.982H82.49v6.982z" opacity=".5" transform="matrix(.7397 0 0 .7397 0 22.618)"/><path fill="url(#aI)" d="M11.394 0C5.112 0 0 4.92 0 10.97v68.946c0 6.048 5.112 10.969 11.394 10.969h96.111c6.286 0 11.395-4.921 11.395-10.969V10.97C118.9 4.921 113.792 0 107.505 0H11.394M2.709 79.916V10.97c0-4.611 3.896-8.36 8.685-8.36h96.111c4.792 0 8.686 3.749 8.686 8.36v68.946c0 4.608-3.894 8.359-8.686 8.359H11.394c-4.79 0-8.685-3.751-8.685-8.359z" transform="matrix(.7397 0 0 .7397 0 22.618)"/><path fill="url(#aJ)" d="M117.546 79.916c0 5.337-4.494 9.664-10.041 9.664H11.394c-5.543 0-10.039-4.327-10.039-9.664V10.97c0-5.338 4.495-9.666 10.039-9.666h96.111c5.547 0 10.041 4.328 10.041 9.666v68.946z" transform="matrix(.7397 0 0 .7397 0 22.618)"/><path fill="url(#aK)" d="M116.468 79.228c0 5.191-4.373 9.398-9.764 9.398H12.198c-5.393 0-9.765-4.207-9.765-9.398V11.656c0-5.19 4.373-9.399 9.765-9.399h94.506c5.391 0 9.764 4.209 9.764 9.399v67.572z" transform="matrix(.7397 0 0 .7397 0 22.618)"/><path fill="url(#aL)" d="M.84 59.228c0 3.656.479 7.201 1.372 10.584.07.012.149.024.221.039V28.958C1.404 32.572.84 55.291.84 59.228z" transform="matrix(.7397 0 0 .7397 0 22.618)"/><path fill="url(#aM)" d="M105.987 3.161H13.56c-5.198 0-9.408 4.052-9.408 9.055v56.756c6.837 1.2 31.921 5.445 49.996-18.007 21.559-27.975 53.451-24.699 61.247-26.647V12.216c0-5.003-4.213-9.055-9.408-9.055z" transform="matrix(.7397 0 0 .7397 0 22.618)"/><path fill="url(#aN)" d="M107.036 78.971H11.625V11.927h95.411v67.044z" transform="matrix(.7397 0 0 .7397 0 22.618)"/><path fill="url(#aO)" d="M107.139 11.897H11.625v66.914h1.505V13.385h94.008v-1.488h.001z" transform="matrix(.7397 0 0 .7397 0 22.618)"/><path fill="#fff" d="M78.242 31.415v48.503H8.594v1.099h69.648v.03h1.113V31.415h-1.113z"/><path fill="url(#aP)" d="M14.255 25.888c0 13.779 20.237 24.954 45.202 24.954 24.967 0 45.208-11.174 45.208-24.954 0-4.603-2.27-8.912-6.211-12.618H20.462c-3.941 3.707-6.207 8.015-6.207 12.618z" transform="matrix(.7397 0 0 .7397 0 22.618)"/><path fill="url(#aQ)" d="M102.21 80.783a5.313 5.313 0 1 1-10.624 0 5.313 5.313 0 1 1 10.624 0z" transform="matrix(.65114 0 0 .54085 33.57 43.927)"/><path fill="url(#aR)" stroke="url(#aS)" stroke-linecap="round" stroke-linejoin="round" stroke-width="1.578" d="M102.21 80.783a5.313 5.313 0 1 1-10.624 0 5.313 5.313 0 1 1 10.624 0z" transform="matrix(.3168 0 0 .3168 74.441 62.99)"/><path fill="url(#aT)" d="M102.21 80.783a5.313 5.313 0 1 1-10.624 0 5.313 5.313 0 1 1 10.624 0z" transform="matrix(.19664 0 0 .16333 86.058 75.03)"/><path fill="url(#aU)" stroke="url(#aV)" stroke-linecap="round" stroke-linejoin="round" stroke-width="1.578" d="M102.21 80.783a5.313 5.313 0 1 1-10.624 0 5.313 5.313 0 1 1 10.624 0z" transform="matrix(.3168 0 0 .3168 56.941 62.99)"/><path fill="url(#aW)" d="M102.21 80.783a5.313 5.313 0 1 1-10.624 0 5.313 5.313 0 1 1 10.624 0z" transform="matrix(.19664 0 0 .16333 68.558 75.03)"/></g><g transform="matrix(.15206 0 0 .15206 27.685 83.572)"><rect width="42.827" height="101.886" x="75.297" y="10.857" fill="url(#aX)" stroke="url(#aY)" stroke-linecap="round" stroke-linejoin="round" stroke-width="1.402" rx="4.319" ry="4.319"/><rect width="41.66" height="98.975" x="75.88" y="11.373" fill="url(#aZ)" stroke="url(#ba)" stroke-linecap="round" stroke-linejoin="round" stroke-width=".764" rx="4.319" ry="4.319"/><path fill="url(#bb)" stroke="url(#bc)" stroke-linecap="round" stroke-linejoin="round" stroke-width=".625" d="M81.469 61.219a2.344 2.344 0 0 0-2.344 2.343c0 1.295 1.049 2.313 2.344 2.313h9.156c.923 2.479 3.263 4.25 6.063 4.25 2.799 0 5.17-1.771 6.093-4.25h9.125c1.295 0 2.344-1.018 2.344-2.313a2.344 2.344 0 0 0-2.344-2.343H81.47z"/><rect width="28.438" height="1.563" x="82.523" y="62.814" fill="url(#bd)" rx="0" ry="1.328"/><path fill="url(#be)" stroke="url(#bf)" stroke-linecap="round" stroke-linejoin="round" stroke-width=".875" d="M96.75 81.813c-2.428 0-4.48 1.327-5.719 3.218h-2.937c-2.393 0-4.313 1.656-4.313 3.719 0 2.063 1.92 3.719 4.313 3.719h2.937c1.24 1.891 3.29 3.219 5.719 3.219 2.426 0 4.448-1.332 5.688-3.22h2.624c2.393 0 4.313-1.655 4.313-3.718 0-2.063-1.92-3.719-4.313-3.719h-2.624c-1.24-1.887-3.262-3.218-5.688-3.219z"/><path fill="url(#bg)" fill-rule="evenodd" d="M80.492 14.034a4.162 4.162 0 0 0-4.175 4.175v76.697c24.343-2.403 20.432-35.581 40.33-37.94V18.209a4.162 4.162 0 0 0-4.175-4.175h-31.98z"/><rect width="35.118" height="11.318" x="79.136" y="15.97" fill="url(#bh)" stroke="url(#bi)" stroke-linecap="round" stroke-linejoin="round" stroke-width=".875" rx="3" ry="3"/><rect width="35.118" height="11.318" x="79.136" y="27.325" fill="url(#bj)" stroke="url(#bk)" stroke-linecap="round" stroke-linejoin="round" stroke-width=".875" rx="3" ry="3"/><path fill="url(#bl)" d="M83.164 28.591a2.783 2.783 0 0 0-2.789 2.79v4.184c15.865-.043 29.04-1.644 32.659-3.806v-.378a2.783 2.783 0 0 0-2.79-2.79h-27.08z"/><rect width="35.118" height="11.318" x="79.136" y="38.642" fill="url(#bm)" stroke="url(#bn)" stroke-linecap="round" stroke-linejoin="round" stroke-width=".875" rx="3" ry="3"/><rect width="28.672" height="3.54" x="82.196" y="18.855" fill="none" stroke="url(#bo)" stroke-linecap="round" stroke-linejoin="round" stroke-width=".787" rx="1" ry="1"/><path fill="url(#bp)" d="M83.164 16.873a2.783 2.783 0 0 0-2.789 2.789v4.184c15.865-.043 29.04-1.644 32.659-3.806v-.378a2.783 2.783 0 0 0-2.79-2.79h-27.08z"/><path fill="url(#bq)" d="M83.164 39.841a2.783 2.783 0 0 0-2.789 2.79v4.184c15.865-.043 29.04-1.644 32.659-3.806v-.378a2.783 2.783 0 0 0-2.79-2.79h-27.08z"/><path fill="url(#br)" stroke="url(#bs)" stroke-linecap="round" stroke-linejoin="round" stroke-width=".806" d="M102.21 80.783a5.313 5.313 0 1 1-10.624 0 5.313 5.313 0 1 1 10.624 0z" transform="matrix(.93056 0 0 .93056 6.573 13.657)"/><path fill="none" d="M23.878 97.857c3.042.43 6.513-2.122 8.172-5.825-.187-2.862-1.761-5.04-4.276-5.392-2.806-.393-5.955 1.6-7.891 4.701-.341 3.382 1.22 6.127 3.995 6.516z"/><path fill="url(#bt)" d="M100.112 106.448c0 9.111-18.206 16.498-40.663 16.498-22.456 0-40.661-7.387-40.661-16.498S36.993 89.95 59.449 89.95c22.457 0 40.663 7.387 40.663 16.498z" transform="matrix(.7397 0 0 .7397 0 22.618)"/><path fill="url(#bu)" d="M98.757 106.08c0 7.85-17.591 14.209-39.292 14.209s-39.294-6.359-39.294-14.209c0-7.848 17.593-14.208 39.294-14.208 21.701 0 39.292 6.36 39.292 14.208z" transform="matrix(.7397 0 0 .7397 0 22.618)"/><path fill="url(#bv)" d="M82.453 104.359c0 2.913-10.693 5.278-23.886 5.278-13.194 0-23.89-2.365-23.89-5.278 0-2.918 10.696-5.279 23.89-5.279 13.193 0 23.886 2.361 23.886 5.279z" opacity=".5" transform="matrix(.7397 0 0 .7397 0 22.618)"/><path fill="url(#bw)" d="M82.453 89.584c0 9.064-10.693 16.412-23.886 16.412-13.194 0-23.89-7.348-23.89-16.412 0-9.062 10.696-16.409 23.89-16.409 13.193 0 23.886 7.347 23.886 16.409z" transform="matrix(.7397 0 0 .7397 0 22.618)"/><path fill="url(#bx)" d="M80.805 90.05c0 8.435-9.958 15.275-22.238 15.275-12.284 0-22.239-6.841-22.239-15.275 0-8.438 9.956-15.279 22.239-15.279 12.28 0 22.238 6.84 22.238 15.279z" transform="matrix(.7397 0 0 .7397 0 22.618)"/><path fill="url(#by)" d="M82.49 94.028H34.886v-6.982H82.49v6.982z" opacity=".5" transform="matrix(.7397 0 0 .7397 0 22.618)"/><path fill="url(#bz)" d="M11.394 0C5.112 0 0 4.92 0 10.97v68.946c0 6.048 5.112 10.969 11.394 10.969h96.111c6.286 0 11.395-4.921 11.395-10.969V10.97C118.9 4.921 113.792 0 107.505 0H11.394M2.709 79.916V10.97c0-4.611 3.896-8.36 8.685-8.36h96.111c4.792 0 8.686 3.749 8.686 8.36v68.946c0 4.608-3.894 8.359-8.686 8.359H11.394c-4.79 0-8.685-3.751-8.685-8.359z" transform="matrix(.7397 0 0 .7397 0 22.618)"/><path fill="url(#bA)" d="M117.546 79.916c0 5.337-4.494 9.664-10.041 9.664H11.394c-5.543 0-10.039-4.327-10.039-9.664V10.97c0-5.338 4.495-9.666 10.039-9.666h96.111c5.547 0 10.041 4.328 10.041 9.666v68.946z" transform="matrix(.7397 0 0 .7397 0 22.618)"/><path fill="url(#bB)" d="M116.468 79.228c0 5.191-4.373 9.398-9.764 9.398H12.198c-5.393 0-9.765-4.207-9.765-9.398V11.656c0-5.19 4.373-9.399 9.765-9.399h94.506c5.391 0 9.764 4.209 9.764 9.399v67.572z" transform="matrix(.7397 0 0 .7397 0 22.618)"/><path fill="url(#bC)" d="M.84 59.228c0 3.656.479 7.201 1.372 10.584.07.012.149.024.221.039V28.958C1.404 32.572.84 55.291.84 59.228z" transform="matrix(.7397 0 0 .7397 0 22.618)"/><path fill="url(#bD)" d="M105.987 3.161H13.56c-5.198 0-9.408 4.052-9.408 9.055v56.756c6.837 1.2 31.921 5.445 49.996-18.007 21.559-27.975 53.451-24.699 61.247-26.647V12.216c0-5.003-4.213-9.055-9.408-9.055z" transform="matrix(.7397 0 0 .7397 0 22.618)"/><path fill="url(#bE)" d="M107.036 78.971H11.625V11.927h95.411v67.044z" transform="matrix(.7397 0 0 .7397 0 22.618)"/><path fill="url(#bF)" d="M107.139 11.897H11.625v66.914h1.505V13.385h94.008v-1.488h.001z" transform="matrix(.7397 0 0 .7397 0 22.618)"/><path fill="#fff" d="M78.242 31.415v48.503H8.594v1.099h69.648v.03h1.113V31.415h-1.113z"/><path fill="url(#bG)" d="M14.255 25.888c0 13.779 20.237 24.954 45.202 24.954 24.967 0 45.208-11.174 45.208-24.954 0-4.603-2.27-8.912-6.211-12.618H20.462c-3.941 3.707-6.207 8.015-6.207 12.618z" transform="matrix(.7397 0 0 .7397 0 22.618)"/><path fill="url(#bH)" d="M102.21 80.783a5.313 5.313 0 1 1-10.624 0 5.313 5.313 0 1 1 10.624 0z" transform="matrix(.65114 0 0 .54085 33.57 43.927)"/><path fill="url(#bI)" stroke="url(#bJ)" stroke-linecap="round" stroke-linejoin="round" stroke-width="1.578" d="M102.21 80.783a5.313 5.313 0 1 1-10.624 0 5.313 5.313 0 1 1 10.624 0z" transform="matrix(.3168 0 0 .3168 74.441 62.99)"/><path fill="url(#bK)" d="M102.21 80.783a5.313 5.313 0 1 1-10.624 0 5.313 5.313 0 1 1 10.624 0z" transform="matrix(.19664 0 0 .16333 86.058 75.03)"/><path fill="url(#bL)" stroke="url(#bM)" stroke-linecap="round" stroke-linejoin="round" stroke-width="1.578" d="M102.21 80.783a5.313 5.313 0 1 1-10.624 0 5.313 5.313 0 1 1 10.624 0z" transform="matrix(.3168 0 0 .3168 56.941 62.99)"/><path fill="url(#bN)" d="M102.21 80.783a5.313 5.313 0 1 1-10.624 0 5.313 5.313 0 1 1 10.624 0z" transform="matrix(.19664 0 0 .16333 68.558 75.03)"/></g><g transform="matrix(.15206 0 0 .15206 73.293 83.572)"><rect width="42.827" height="101.886" x="75.297" y="10.857" fill="url(#bO)" stroke="url(#bP)" stroke-linecap="round" stroke-linejoin="round" stroke-width="1.402" rx="4.319" ry="4.319"/><rect width="41.66" height="98.975" x="75.88" y="11.373" fill="url(#bQ)" stroke="url(#bR)" stroke-linecap="round" stroke-linejoin="round" stroke-width=".764" rx="4.319" ry="4.319"/><path fill="url(#bS)" stroke="url(#bT)" stroke-linecap="round" stroke-linejoin="round" stroke-width=".625" d="M81.469 61.219a2.344 2.344 0 0 0-2.344 2.343c0 1.295 1.049 2.313 2.344 2.313h9.156c.923 2.479 3.263 4.25 6.063 4.25 2.799 0 5.17-1.771 6.093-4.25h9.125c1.295 0 2.344-1.018 2.344-2.313a2.344 2.344 0 0 0-2.344-2.343H81.47z"/><rect width="28.438" height="1.563" x="82.523" y="62.814" fill="url(#bU)" rx="0" ry="1.328"/><path fill="url(#bV)" stroke="url(#bW)" stroke-linecap="round" stroke-linejoin="round" stroke-width=".875" d="M96.75 81.813c-2.428 0-4.48 1.327-5.719 3.218h-2.937c-2.393 0-4.313 1.656-4.313 3.719 0 2.063 1.92 3.719 4.313 3.719h2.937c1.24 1.891 3.29 3.219 5.719 3.219 2.426 0 4.448-1.332 5.688-3.22h2.624c2.393 0 4.313-1.655 4.313-3.718 0-2.063-1.92-3.719-4.313-3.719h-2.624c-1.24-1.887-3.262-3.218-5.688-3.219z"/><path fill="url(#bX)" fill-rule="evenodd" d="M80.492 14.034a4.162 4.162 0 0 0-4.175 4.175v76.697c24.343-2.403 20.432-35.581 40.33-37.94V18.209a4.162 4.162 0 0 0-4.175-4.175h-31.98z"/><rect width="35.118" height="11.318" x="79.136" y="15.97" fill="url(#bY)" stroke="url(#bZ)" stroke-linecap="round" stroke-linejoin="round" stroke-width=".875" rx="3" ry="3"/><rect width="35.118" height="11.318" x="79.136" y="27.325" fill="url(#ca)" stroke="url(#cb)" stroke-linecap="round" stroke-linejoin="round" stroke-width=".875" rx="3" ry="3"/><path fill="url(#cc)" d="M83.164 28.591a2.783 2.783 0 0 0-2.789 2.79v4.184c15.865-.043 29.04-1.644 32.659-3.806v-.378a2.783 2.783 0 0 0-2.79-2.79h-27.08z"/><rect width="35.118" height="11.318" x="79.136" y="38.642" fill="url(#cd)" stroke="url(#ce)" stroke-linecap="round" stroke-linejoin="round" stroke-width=".875" rx="3" ry="3"/><rect width="28.672" height="3.54" x="82.196" y="18.855" fill="none" stroke="url(#cf)" stroke-linecap="round" stroke-linejoin="round" stroke-width=".787" rx="1" ry="1"/><path fill="url(#cg)" d="M83.164 16.873a2.783 2.783 0 0 0-2.789 2.789v4.184c15.865-.043 29.04-1.644 32.659-3.806v-.378a2.783 2.783 0 0 0-2.79-2.79h-27.08z"/><path fill="url(#ch)" d="M83.164 39.841a2.783 2.783 0 0 0-2.789 2.79v4.184c15.865-.043 29.04-1.644 32.659-3.806v-.378a2.783 2.783 0 0 0-2.79-2.79h-27.08z"/><path fill="url(#ci)" stroke="url(#cj)" stroke-linecap="round" stroke-linejoin="round" stroke-width=".806" d="M102.21 80.783a5.313 5.313 0 1 1-10.624 0 5.313 5.313 0 1 1 10.624 0z" transform="matrix(.93056 0 0 .93056 6.573 13.657)"/><path fill="none" d="M23.878 97.857c3.042.43 6.513-2.122 8.172-5.825-.187-2.862-1.761-5.04-4.276-5.392-2.806-.393-5.955 1.6-7.891 4.701-.341 3.382 1.22 6.127 3.995 6.516z"/><path fill="url(#ck)" d="M100.112 106.448c0 9.111-18.206 16.498-40.663 16.498-22.456 0-40.661-7.387-40.661-16.498S36.993 89.95 59.449 89.95c22.457 0 40.663 7.387 40.663 16.498z" transform="matrix(.7397 0 0 .7397 0 22.618)"/><path fill="url(#cl)" d="M98.757 106.08c0 7.85-17.591 14.209-39.292 14.209s-39.294-6.359-39.294-14.209c0-7.848 17.593-14.208 39.294-14.208 21.701 0 39.292 6.36 39.292 14.208z" transform="matrix(.7397 0 0 .7397 0 22.618)"/><path fill="url(#cm)" d="M82.453 104.359c0 2.913-10.693 5.278-23.886 5.278-13.194 0-23.89-2.365-23.89-5.278 0-2.918 10.696-5.279 23.89-5.279 13.193 0 23.886 2.361 23.886 5.279z" opacity=".5" transform="matrix(.7397 0 0 .7397 0 22.618)"/><path fill="url(#cn)" d="M82.453 89.584c0 9.064-10.693 16.412-23.886 16.412-13.194 0-23.89-7.348-23.89-16.412 0-9.062 10.696-16.409 23.89-16.409 13.193 0 23.886 7.347 23.886 16.409z" transform="matrix(.7397 0 0 .7397 0 22.618)"/><path fill="url(#co)" d="M80.805 90.05c0 8.435-9.958 15.275-22.238 15.275-12.284 0-22.239-6.841-22.239-15.275 0-8.438 9.956-15.279 22.239-15.279 12.28 0 22.238 6.84 22.238 15.279z" transform="matrix(.7397 0 0 .7397 0 22.618)"/><path fill="url(#cp)" d="M82.49 94.028H34.886v-6.982H82.49v6.982z" opacity=".5" transform="matrix(.7397 0 0 .7397 0 22.618)"/><path fill="url(#cq)" d="M11.394 0C5.112 0 0 4.92 0 10.97v68.946c0 6.048 5.112 10.969 11.394 10.969h96.111c6.286 0 11.395-4.921 11.395-10.969V10.97C118.9 4.921 113.792 0 107.505 0H11.394M2.709 79.916V10.97c0-4.611 3.896-8.36 8.685-8.36h96.111c4.792 0 8.686 3.749 8.686 8.36v68.946c0 4.608-3.894 8.359-8.686 8.359H11.394c-4.79 0-8.685-3.751-8.685-8.359z" transform="matrix(.7397 0 0 .7397 0 22.618)"/><path fill="url(#cr)" d="M117.546 79.916c0 5.337-4.494 9.664-10.041 9.664H11.394c-5.543 0-10.039-4.327-10.039-9.664V10.97c0-5.338 4.495-9.666 10.039-9.666h96.111c5.547 0 10.041 4.328 10.041 9.666v68.946z" transform="matrix(.7397 0 0 .7397 0 22.618)"/><path fill="url(#cs)" d="M116.468 79.228c0 5.191-4.373 9.398-9.764 9.398H12.198c-5.393 0-9.765-4.207-9.765-9.398V11.656c0-5.19 4.373-9.399 9.765-9.399h94.506c5.391 0 9.764 4.209 9.764 9.399v67.572z" transform="matrix(.7397 0 0 .7397 0 22.618)"/><path fill="url(#ct)" d="M.84 59.228c0 3.656.479 7.201 1.372 10.584.07.012.149.024.221.039V28.958C1.404 32.572.84 55.291.84 59.228z" transform="matrix(.7397 0 0 .7397 0 22.618)"/><path fill="url(#cu)" d="M105.987 3.161H13.56c-5.198 0-9.408 4.052-9.408 9.055v56.756c6.837 1.2 31.921 5.445 49.996-18.007 21.559-27.975 53.451-24.699 61.247-26.647V12.216c0-5.003-4.213-9.055-9.408-9.055z" transform="matrix(.7397 0 0 .7397 0 22.618)"/><path fill="url(#cv)" d="M107.036 78.971H11.625V11.927h95.411v67.044z" transform="matrix(.7397 0 0 .7397 0 22.618)"/><path fill="url(#cw)" d="M107.139 11.897H11.625v66.914h1.505V13.385h94.008v-1.488h.001z" transform="matrix(.7397 0 0 .7397 0 22.618)"/><path fill="#fff" d="M78.242 31.415v48.503H8.594v1.099h69.648v.03h1.113V31.415h-1.113z"/><path fill="url(#cx)" d="M14.255 25.888c0 13.779 20.237 24.954 45.202 24.954 24.967 0 45.208-11.174 45.208-24.954 0-4.603-2.27-8.912-6.211-12.618H20.462c-3.941 3.707-6.207 8.015-6.207 12.618z" transform="matrix(.7397 0 0 .7397 0 22.618)"/><path fill="url(#cy)" d="M102.21 80.783a5.313 5.313 0 1 1-10.624 0 5.313 5.313 0 1 1 10.624 0z" transform="matrix(.65114 0 0 .54085 33.57 43.927)"/><path fill="url(#cz)" stroke="url(#cA)" stroke-linecap="round" stroke-linejoin="round" stroke-width="1.578" d="M102.21 80.783a5.313 5.313 0 1 1-10.624 0 5.313 5.313 0 1 1 10.624 0z" transform="matrix(.3168 0 0 .3168 74.441 62.99)"/><path fill="url(#cB)" d="M102.21 80.783a5.313 5.313 0 1 1-10.624 0 5.313 5.313 0 1 1 10.624 0z" transform="matrix(.19664 0 0 .16333 86.058 75.03)"/><path fill="url(#cC)" stroke="url(#cD)" stroke-linecap="round" stroke-linejoin="round" stroke-width="1.578" d="M102.21 80.783a5.313 5.313 0 1 1-10.624 0 5.313 5.313 0 1 1 10.624 0z" transform="matrix(.3168 0 0 .3168 56.941 62.99)"/><path fill="url(#cE)" d="M102.21 80.783a5.313 5.313 0 1 1-10.624 0 5.313 5.313 0 1 1 10.624 0z" transform="matrix(.19664 0 0 .16333 68.558 75.03)"/></g><g transform="matrix(.15206 0 0 .15206 27.685 19.932)"><rect width="42.827" height="101.886" x="75.297" y="10.857" fill="url(#cF)" stroke="url(#cG)" stroke-linecap="round" stroke-linejoin="round" stroke-width="1.402" rx="4.319" ry="4.319"/><rect width="41.66" height="98.975" x="75.88" y="11.373" fill="url(#cH)" stroke="url(#cI)" stroke-linecap="round" stroke-linejoin="round" stroke-width=".764" rx="4.319" ry="4.319"/><path fill="url(#cJ)" stroke="url(#cK)" stroke-linecap="round" stroke-linejoin="round" stroke-width=".625" d="M81.469 61.219a2.344 2.344 0 0 0-2.344 2.343c0 1.295 1.049 2.313 2.344 2.313h9.156c.923 2.479 3.263 4.25 6.063 4.25 2.799 0 5.17-1.771 6.093-4.25h9.125c1.295 0 2.344-1.018 2.344-2.313a2.344 2.344 0 0 0-2.344-2.343H81.47z"/><rect width="28.438" height="1.563" x="82.523" y="62.814" fill="url(#cL)" rx="0" ry="1.328"/><path fill="url(#cM)" stroke="url(#cN)" stroke-linecap="round" stroke-linejoin="round" stroke-width=".875" d="M96.75 81.813c-2.428 0-4.48 1.327-5.719 3.218h-2.937c-2.393 0-4.313 1.656-4.313 3.719 0 2.063 1.92 3.719 4.313 3.719h2.937c1.24 1.891 3.29 3.219 5.719 3.219 2.426 0 4.448-1.332 5.688-3.22h2.624c2.393 0 4.313-1.655 4.313-3.718 0-2.063-1.92-3.719-4.313-3.719h-2.624c-1.24-1.887-3.262-3.218-5.688-3.219z"/><path fill="url(#cO)" fill-rule="evenodd" d="M80.492 14.034a4.162 4.162 0 0 0-4.175 4.175v76.697c24.343-2.403 20.432-35.581 40.33-37.94V18.209a4.162 4.162 0 0 0-4.175-4.175h-31.98z"/><rect width="35.118" height="11.318" x="79.136" y="15.97" fill="url(#cP)" stroke="url(#cQ)" stroke-linecap="round" stroke-linejoin="round" stroke-width=".875" rx="3" ry="3"/><rect width="35.118" height="11.318" x="79.136" y="27.325" fill="url(#cR)" stroke="url(#cS)" stroke-linecap="round" stroke-linejoin="round" stroke-width=".875" rx="3" ry="3"/><path fill="url(#cT)" d="M83.164 28.591a2.783 2.783 0 0 0-2.789 2.79v4.184c15.865-.043 29.04-1.644 32.659-3.806v-.378a2.783 2.783 0 0 0-2.79-2.79h-27.08z"/><rect width="35.118" height="11.318" x="79.136" y="38.642" fill="url(#cU)" stroke="url(#cV)" stroke-linecap="round" stroke-linejoin="round" stroke-width=".875" rx="3" ry="3"/><rect width="28.672" height="3.54" x="82.196" y="18.855" fill="none" stroke="url(#cW)" stroke-linecap="round" stroke-linejoin="round" stroke-width=".787" rx="1" ry="1"/><path fill="url(#cX)" d="M83.164 16.873a2.783 2.783 0 0 0-2.789 2.789v4.184c15.865-.043 29.04-1.644 32.659-3.806v-.378a2.783 2.783 0 0 0-2.79-2.79h-27.08z"/><path fill="url(#cY)" d="M83.164 39.841a2.783 2.783 0 0 0-2.789 2.79v4.184c15.865-.043 29.04-1.644 32.659-3.806v-.378a2.783 2.783 0 0 0-2.79-2.79h-27.08z"/><path fill="url(#cZ)" stroke="url(#da)" stroke-linecap="round" stroke-linejoin="round" stroke-width=".806" d="M102.21 80.783a5.313 5.313 0 1 1-10.624 0 5.313 5.313 0 1 1 10.624 0z" transform="matrix(.93056 0 0 .93056 6.573 13.657)"/><path fill="none" d="M23.878 97.857c3.042.43 6.513-2.122 8.172-5.825-.187-2.862-1.761-5.04-4.276-5.392-2.806-.393-5.955 1.6-7.891 4.701-.341 3.382 1.22 6.127 3.995 6.516z"/><path fill="url(#db)" d="M100.112 106.448c0 9.111-18.206 16.498-40.663 16.498-22.456 0-40.661-7.387-40.661-16.498S36.993 89.95 59.449 89.95c22.457 0 40.663 7.387 40.663 16.498z" transform="matrix(.7397 0 0 .7397 0 22.618)"/><path fill="url(#dc)" d="M98.757 106.08c0 7.85-17.591 14.209-39.292 14.209s-39.294-6.359-39.294-14.209c0-7.848 17.593-14.208 39.294-14.208 21.701 0 39.292 6.36 39.292 14.208z" transform="matrix(.7397 0 0 .7397 0 22.618)"/><path fill="url(#dd)" d="M82.453 104.359c0 2.913-10.693 5.278-23.886 5.278-13.194 0-23.89-2.365-23.89-5.278 0-2.918 10.696-5.279 23.89-5.279 13.193 0 23.886 2.361 23.886 5.279z" opacity=".5" transform="matrix(.7397 0 0 .7397 0 22.618)"/><path fill="url(#de)" d="M82.453 89.584c0 9.064-10.693 16.412-23.886 16.412-13.194 0-23.89-7.348-23.89-16.412 0-9.062 10.696-16.409 23.89-16.409 13.193 0 23.886 7.347 23.886 16.409z" transform="matrix(.7397 0 0 .7397 0 22.618)"/><path fill="url(#df)" d="M80.805 90.05c0 8.435-9.958 15.275-22.238 15.275-12.284 0-22.239-6.841-22.239-15.275 0-8.438 9.956-15.279 22.239-15.279 12.28 0 22.238 6.84 22.238 15.279z" transform="matrix(.7397 0 0 .7397 0 22.618)"/><path fill="url(#dg)" d="M82.49 94.028H34.886v-6.982H82.49v6.982z" opacity=".5" transform="matrix(.7397 0 0 .7397 0 22.618)"/><path fill="url(#dh)" d="M11.394 0C5.112 0 0 4.92 0 10.97v68.946c0 6.048 5.112 10.969 11.394 10.969h96.111c6.286 0 11.395-4.921 11.395-10.969V10.97C118.9 4.921 113.792 0 107.505 0H11.394M2.709 79.916V10.97c0-4.611 3.896-8.36 8.685-8.36h96.111c4.792 0 8.686 3.749 8.686 8.36v68.946c0 4.608-3.894 8.359-8.686 8.359H11.394c-4.79 0-8.685-3.751-8.685-8.359z" transform="matrix(.7397 0 0 .7397 0 22.618)"/><path fill="url(#di)" d="M117.546 79.916c0 5.337-4.494 9.664-10.041 9.664H11.394c-5.543 0-10.039-4.327-10.039-9.664V10.97c0-5.338 4.495-9.666 10.039-9.666h96.111c5.547 0 10.041 4.328 10.041 9.666v68.946z" transform="matrix(.7397 0 0 .7397 0 22.618)"/><path fill="url(#dj)" d="M116.468 79.228c0 5.191-4.373 9.398-9.764 9.398H12.198c-5.393 0-9.765-4.207-9.765-9.398V11.656c0-5.19 4.373-9.399 9.765-9.399h94.506c5.391 0 9.764 4.209 9.764 9.399v67.572z" transform="matrix(.7397 0 0 .7397 0 22.618)"/><path fill="url(#dk)" d="M.84 59.228c0 3.656.479 7.201 1.372 10.584.07.012.149.024.221.039V28.958C1.404 32.572.84 55.291.84 59.228z" transform="matrix(.7397 0 0 .7397 0 22.618)"/><path fill="url(#dl)" d="M105.987 3.161H13.56c-5.198 0-9.408 4.052-9.408 9.055v56.756c6.837 1.2 31.921 5.445 49.996-18.007 21.559-27.975 53.451-24.699 61.247-26.647V12.216c0-5.003-4.213-9.055-9.408-9.055z" transform="matrix(.7397 0 0 .7397 0 22.618)"/><path fill="url(#dm)" d="M107.036 78.971H11.625V11.927h95.411v67.044z" transform="matrix(.7397 0 0 .7397 0 22.618)"/><path fill="url(#dn)" d="M107.139 11.897H11.625v66.914h1.505V13.385h94.008v-1.488h.001z" transform="matrix(.7397 0 0 .7397 0 22.618)"/><path fill="#fff" d="M78.242 31.415v48.503H8.594v1.099h69.648v.03h1.113V31.415h-1.113z"/><path fill="url(#do)" d="M14.255 25.888c0 13.779 20.237 24.954 45.202 24.954 24.967 0 45.208-11.174 45.208-24.954 0-4.603-2.27-8.912-6.211-12.618H20.462c-3.941 3.707-6.207 8.015-6.207 12.618z" transform="matrix(.7397 0 0 .7397 0 22.618)"/><path fill="url(#dp)" d="M102.21 80.783a5.313 5.313 0 1 1-10.624 0 5.313 5.313 0 1 1 10.624 0z" transform="matrix(.65114 0 0 .54085 33.57 43.927)"/><path fill="url(#dq)" stroke="url(#dr)" stroke-linecap="round" stroke-linejoin="round" stroke-width="1.578" d="M102.21 80.783a5.313 5.313 0 1 1-10.624 0 5.313 5.313 0 1 1 10.624 0z" transform="matrix(.3168 0 0 .3168 74.441 62.99)"/><path fill="url(#ds)" d="M102.21 80.783a5.313 5.313 0 1 1-10.624 0 5.313 5.313 0 1 1 10.624 0z" transform="matrix(.19664 0 0 .16333 86.058 75.03)"/><path fill="url(#dt)" stroke="url(#du)" stroke-linecap="round" stroke-linejoin="round" stroke-width="1.578" d="M102.21 80.783a5.313 5.313 0 1 1-10.624 0 5.313 5.313 0 1 1 10.624 0z" transform="matrix(.3168 0 0 .3168 56.941 62.99)"/><path fill="url(#dv)" d="M102.21 80.783a5.313 5.313 0 1 1-10.624 0 5.313 5.313 0 1 1 10.624 0z" transform="matrix(.19664 0 0 .16333 68.558 75.03)"/></g><g transform="matrix(.15206 0 0 .15206 73.293 19.932)"><rect width="42.827" height="101.886" x="75.297" y="10.857" fill="url(#dw)" stroke="url(#dx)" stroke-linecap="round" stroke-linejoin="round" stroke-width="1.402" rx="4.319" ry="4.319"/><rect width="41.66" height="98.975" x="75.88" y="11.373" fill="url(#dy)" stroke="url(#dz)" stroke-linecap="round" stroke-linejoin="round" stroke-width=".764" rx="4.319" ry="4.319"/><path fill="url(#dA)" stroke="url(#dB)" stroke-linecap="round" stroke-linejoin="round" stroke-width=".625" d="M81.469 61.219a2.344 2.344 0 0 0-2.344 2.343c0 1.295 1.049 2.313 2.344 2.313h9.156c.923 2.479 3.263 4.25 6.063 4.25 2.799 0 5.17-1.771 6.093-4.25h9.125c1.295 0 2.344-1.018 2.344-2.313a2.344 2.344 0 0 0-2.344-2.343H81.47z"/><rect width="28.438" height="1.563" x="82.523" y="62.814" fill="url(#dC)" rx="0" ry="1.328"/><path fill="url(#dD)" stroke="url(#dE)" stroke-linecap="round" stroke-linejoin="round" stroke-width=".875" d="M96.75 81.813c-2.428 0-4.48 1.327-5.719 3.218h-2.937c-2.393 0-4.313 1.656-4.313 3.719 0 2.063 1.92 3.719 4.313 3.719h2.937c1.24 1.891 3.29 3.219 5.719 3.219 2.426 0 4.448-1.332 5.688-3.22h2.624c2.393 0 4.313-1.655 4.313-3.718 0-2.063-1.92-3.719-4.313-3.719h-2.624c-1.24-1.887-3.262-3.218-5.688-3.219z"/><path fill="url(#dF)" fill-rule="evenodd" d="M80.492 14.034a4.162 4.162 0 0 0-4.175 4.175v76.697c24.343-2.403 20.432-35.581 40.33-37.94V18.209a4.162 4.162 0 0 0-4.175-4.175h-31.98z"/><rect width="35.118" height="11.318" x="79.136" y="15.97" fill="url(#dG)" stroke="url(#dH)" stroke-linecap="round" stroke-linejoin="round" stroke-width=".875" rx="3" ry="3"/><rect width="35.118" height="11.318" x="79.136" y="27.325" fill="url(#dI)" stroke="url(#dJ)" stroke-linecap="round" stroke-linejoin="round" stroke-width=".875" rx="3" ry="3"/><path fill="url(#dK)" d="M83.164 28.591a2.783 2.783 0 0 0-2.789 2.79v4.184c15.865-.043 29.04-1.644 32.659-3.806v-.378a2.783 2.783 0 0 0-2.79-2.79h-27.08z"/><rect width="35.118" height="11.318" x="79.136" y="38.642" fill="url(#dL)" stroke="url(#dM)" stroke-linecap="round" stroke-linejoin="round" stroke-width=".875" rx="3" ry="3"/><rect width="28.672" height="3.54" x="82.196" y="18.855" fill="none" stroke="url(#dN)" stroke-linecap="round" stroke-linejoin="round" stroke-width=".787" rx="1" ry="1"/><path fill="url(#dO)" d="M83.164 16.873a2.783 2.783 0 0 0-2.789 2.789v4.184c15.865-.043 29.04-1.644 32.659-3.806v-.378a2.783 2.783 0 0 0-2.79-2.79h-27.08z"/><path fill="url(#dP)" d="M83.164 39.841a2.783 2.783 0 0 0-2.789 2.79v4.184c15.865-.043 29.04-1.644 32.659-3.806v-.378a2.783 2.783 0 0 0-2.79-2.79h-27.08z"/><path fill="url(#dQ)" stroke="url(#dR)" stroke-linecap="round" stroke-linejoin="round" stroke-width=".806" d="M102.21 80.783a5.313 5.313 0 1 1-10.624 0 5.313 5.313 0 1 1 10.624 0z" transform="matrix(.93056 0 0 .93056 6.573 13.657)"/><path fill="none" d="M23.878 97.857c3.042.43 6.513-2.122 8.172-5.825-.187-2.862-1.761-5.04-4.276-5.392-2.806-.393-5.955 1.6-7.891 4.701-.341 3.382 1.22 6.127 3.995 6.516z"/><path fill="url(#dS)" d="M100.112 106.448c0 9.111-18.206 16.498-40.663 16.498-22.456 0-40.661-7.387-40.661-16.498S36.993 89.95 59.449 89.95c22.457 0 40.663 7.387 40.663 16.498z" transform="matrix(.7397 0 0 .7397 0 22.618)"/><path fill="url(#dT)" d="M98.757 106.08c0 7.85-17.591 14.209-39.292 14.209s-39.294-6.359-39.294-14.209c0-7.848 17.593-14.208 39.294-14.208 21.701 0 39.292 6.36 39.292 14.208z" transform="matrix(.7397 0 0 .7397 0 22.618)"/><path fill="url(#dU)" d="M82.453 104.359c0 2.913-10.693 5.278-23.886 5.278-13.194 0-23.89-2.365-23.89-5.278 0-2.918 10.696-5.279 23.89-5.279 13.193 0 23.886 2.361 23.886 5.279z" opacity=".5" transform="matrix(.7397 0 0 .7397 0 22.618)"/><path fill="url(#dV)" d="M82.453 89.584c0 9.064-10.693 16.412-23.886 16.412-13.194 0-23.89-7.348-23.89-16.412 0-9.062 10.696-16.409 23.89-16.409 13.193 0 23.886 7.347 23.886 16.409z" transform="matrix(.7397 0 0 .7397 0 22.618)"/><path fill="url(#dW)" d="M80.805 90.05c0 8.435-9.958 15.275-22.238 15.275-12.284 0-22.239-6.841-22.239-15.275 0-8.438 9.956-15.279 22.239-15.279 12.28 0 22.238 6.84 22.238 15.279z" transform="matrix(.7397 0 0 .7397 0 22.618)"/><path fill="url(#dX)" d="M82.49 94.028H34.886v-6.982H82.49v6.982z" opacity=".5" transform="matrix(.7397 0 0 .7397 0 22.618)"/><path fill="url(#dY)" d="M11.394 0C5.112 0 0 4.92 0 10.97v68.946c0 6.048 5.112 10.969 11.394 10.969h96.111c6.286 0 11.395-4.921 11.395-10.969V10.97C118.9 4.921 113.792 0 107.505 0H11.394M2.709 79.916V10.97c0-4.611 3.896-8.36 8.685-8.36h96.111c4.792 0 8.686 3.749 8.686 8.36v68.946c0 4.608-3.894 8.359-8.686 8.359H11.394c-4.79 0-8.685-3.751-8.685-8.359z" transform="matrix(.7397 0 0 .7397 0 22.618)"/><path fill="url(#dZ)" d="M117.546 79.916c0 5.337-4.494 9.664-10.041 9.664H11.394c-5.543 0-10.039-4.327-10.039-9.664V10.97c0-5.338 4.495-9.666 10.039-9.666h96.111c5.547 0 10.041 4.328 10.041 9.666v68.946z" transform="matrix(.7397 0 0 .7397 0 22.618)"/><path fill="url(#ea)" d="M116.468 79.228c0 5.191-4.373 9.398-9.764 9.398H12.198c-5.393 0-9.765-4.207-9.765-9.398V11.656c0-5.19 4.373-9.399 9.765-9.399h94.506c5.391 0 9.764 4.209 9.764 9.399v67.572z" transform="matrix(.7397 0 0 .7397 0 22.618)"/><path fill="url(#eb)" d="M.84 59.228c0 3.656.479 7.201 1.372 10.584.07.012.149.024.221.039V28.958C1.404 32.572.84 55.291.84 59.228z" transform="matrix(.7397 0 0 .7397 0 22.618)"/><path fill="url(#ec)" d="M105.987 3.161H13.56c-5.198 0-9.408 4.052-9.408 9.055v56.756c6.837 1.2 31.921 5.445 49.996-18.007 21.559-27.975 53.451-24.699 61.247-26.647V12.216c0-5.003-4.213-9.055-9.408-9.055z" transform="matrix(.7397 0 0 .7397 0 22.618)"/><path fill="url(#ed)" d="M107.036 78.971H11.625V11.927h95.411v67.044z" transform="matrix(.7397 0 0 .7397 0 22.618)"/><path fill="url(#ee)" d="M107.139 11.897H11.625v66.914h1.505V13.385h94.008v-1.488h.001z" transform="matrix(.7397 0 0 .7397 0 22.618)"/><path fill="#fff" d="M78.242 31.415v48.503H8.594v1.099h69.648v.03h1.113V31.415h-1.113z"/><path fill="url(#ef)" d="M14.255 25.888c0 13.779 20.237 24.954 45.202 24.954 24.967 0 45.208-11.174 45.208-24.954 0-4.603-2.27-8.912-6.211-12.618H20.462c-3.941 3.707-6.207 8.015-6.207 12.618z" transform="matrix(.7397 0 0 .7397 0 22.618)"/><path fill="url(#eg)" d="M102.21 80.783a5.313 5.313 0 1 1-10.624 0 5.313 5.313 0 1 1 10.624 0z" transform="matrix(.65114 0 0 .54085 33.57 43.927)"/><path fill="url(#eh)" stroke="url(#ei)" stroke-linecap="round" stroke-linejoin="round" stroke-width="1.578" d="M102.21 80.783a5.313 5.313 0 1 1-10.624 0 5.313 5.313 0 1 1 10.624 0z" transform="matrix(.3168 0 0 .3168 74.441 62.99)"/><path fill="url(#ej)" d="M102.21 80.783a5.313 5.313 0 1 1-10.624 0 5.313 5.313 0 1 1 10.624 0z" transform="matrix(.19664 0 0 .16333 86.058 75.03)"/><path fill="url(#ek)" stroke="url(#el)" stroke-linecap="round" stroke-linejoin="round" stroke-width="1.578" d="M102.21 80.783a5.313 5.313 0 1 1-10.624 0 5.313 5.313 0 1 1 10.624 0z" transform="matrix(.3168 0 0 .3168 56.941 62.99)"/><path fill="url(#em)" d="M102.21 80.783a5.313 5.313 0 1 1-10.624 0 5.313 5.313 0 1 1 10.624 0z" transform="matrix(.19664 0 0 .16333 68.558 75.03)"/></g><g transform="translate(-5.671 .009)"><rect width="6.512" height="15.492" x="61.938" y="53.403" fill="url(#en)" stroke="url(#eo)" stroke-linecap="round" stroke-linejoin="round" stroke-width=".213" rx=".657" ry=".657"/><rect width="6.335" height="15.05" x="62.027" y="53.481" fill="url(#ep)" stroke="url(#eq)" stroke-linecap="round" stroke-linejoin="round" stroke-width=".116" rx=".657" ry=".657"/><path fill="url(#er)" stroke="url(#es)" stroke-linecap="round" stroke-linejoin="round" stroke-width=".095" d="M62.877 61.06a.356.356 0 0 0-.357.357c0 .197.16.352.357.352h1.392a.983.983 0 0 0 1.848 0h1.388a.352.352 0 0 0 .356-.352.356.356 0 0 0-.356-.356h-4.628z"/><rect width="4.324" height=".238" x="63.037" y="61.303" fill="url(#et)" rx="0" ry=".202"/><path fill="url(#eu)" stroke="url(#ev)" stroke-linecap="round" stroke-linejoin="round" stroke-width=".133" d="M65.2 64.192c-.369 0-.68.202-.87.49h-.446c-.364 0-.656.251-.656.565 0 .314.292.566.656.566h.447c.188.287.5.489.87.489.368 0 .676-.202.864-.49h.4c.363 0 .655-.251.655-.565 0-.314-.292-.565-.656-.565h-.399c-.188-.287-.496-.49-.865-.49z"/><path fill="url(#ew)" fill-rule="evenodd" d="M62.728 53.886a.633.633 0 0 0-.635.635v11.662c3.702-.365 3.107-5.41 6.133-5.769v-5.893a.633.633 0 0 0-.635-.635h-4.863z"/><rect width="5.34" height="1.721" x="62.522" y="54.18" fill="url(#ex)" stroke="url(#ey)" stroke-linecap="round" stroke-linejoin="round" stroke-width=".133" rx=".456" ry=".456"/><rect width="5.34" height="1.721" x="62.522" y="55.907" fill="url(#ez)" stroke="url(#eA)" stroke-linecap="round" stroke-linejoin="round" stroke-width=".133" rx=".456" ry=".456"/><path fill="url(#eB)" d="M63.135 56.1a.423.423 0 0 0-.425.424v.636c2.413-.007 4.416-.25 4.966-.579v-.057a.423.423 0 0 0-.424-.424h-4.117z"/><rect width="5.34" height="1.721" x="62.522" y="57.628" fill="url(#eC)" stroke="url(#eD)" stroke-linecap="round" stroke-linejoin="round" stroke-width=".133" rx=".456" ry=".456"/><rect width="4.36" height=".538" x="62.987" y="54.619" fill="none" stroke="url(#eE)" stroke-linecap="round" stroke-linejoin="round" stroke-width=".12" rx=".152" ry=".152"/><path fill="url(#eF)" d="M63.135 54.318a.423.423 0 0 0-.425.424v.636c2.413-.006 4.416-.25 4.966-.579v-.057a.423.423 0 0 0-.424-.424h-4.117z"/><path fill="url(#eG)" d="M63.135 57.81a.423.423 0 0 0-.425.424v.637c2.413-.007 4.416-.25 4.966-.58v-.057a.423.423 0 0 0-.424-.424h-4.117z"/><path fill="url(#eH)" stroke="url(#eI)" stroke-linecap="round" stroke-linejoin="round" stroke-width=".806" d="M102.21 80.783a5.313 5.313 0 1 1-10.624 0 5.313 5.313 0 1 1 10.624 0z" transform="matrix(.1415 0 0 .1415 51.488 53.829)"/><path fill="url(#eJ)" d="M102.21 80.783a5.313 5.313 0 1 1-10.624 0 5.313 5.313 0 1 1 10.624 0z" transform="matrix(.09901 0 0 .08224 55.593 58.432)"/><path fill="url(#eK)" stroke="url(#eL)" stroke-linecap="round" stroke-linejoin="round" stroke-width="1.578" d="M102.21 80.783a5.313 5.313 0 1 1-10.624 0 5.313 5.313 0 1 1 10.624 0z" transform="translate(61.808 61.33) scale(.04817)"/><path fill="url(#eM)" d="M102.21 80.783a5.313 5.313 0 1 1-10.624 0 5.313 5.313 0 1 1 10.624 0z" transform="matrix(.0299 0 0 .02484 63.575 63.16)"/><path fill="url(#eN)" stroke="url(#eO)" stroke-linecap="round" stroke-linejoin="round" stroke-width="1.578" d="M102.21 80.783a5.313 5.313 0 1 1-10.624 0 5.313 5.313 0 1 1 10.624 0z" transform="translate(59.147 61.33) scale(.04817)"/><path fill="url(#eP)" d="M102.21 80.783a5.313 5.313 0 1 1-10.624 0 5.313 5.313 0 1 1 10.624 0z" transform="matrix(.0299 0 0 .02484 60.914 63.16)"/></g><g fill="none" stroke="#000"><path d="M32.56 61.158h21.926M64.56 61.158h21.926"/></g><path fill="none" stroke="#000" d="M66.273 54.408l14.5-14.5M52.773 54.408l-14.5-14.5M51.773 67.908l-14.5 14.5M67.273 67.908l14.5 14.5"/></svg>