<svg xmlns="http://www.w3.org/2000/svg" shape-rendering="geometricPrecision" text-rendering="geometricPrecision" image-rendering="optimizeQuality" fill-rule="evenodd" clip-rule="evenodd" viewBox="0 0 512 481.85"><path d="m152.09 126.91.7-25.78 85.43 24.67c15.4 3.35 30.88 3.35 46.28 0l81.6-24.93v28.74c0 15.58.45 27.18-1.7 42.64-.95 6.9-2.55 13.59-5.39 18.13.77.35 1.5.79 2.18 1.31 8.81 6.66 8.22 24 6.23 33.73-1.16 5.65-3.16 11.13-6.03 15.52-3.28 5-7.69 8.64-13.29 9.74-1.32 5.27-3 10.51-4.99 15.65-5.7 14.67-14.06 28.54-24.58 40.25 3.65 5.49 7.52 11.05 11.45 16.36 27.1 23.37 104.56 28.21 133.52 44.36 9.23 5.15 17.57 11.7 24.28 20.56 16.73 22.09 18.16 40.71 24.22 67.79-1.48 15.78-10.43 24.85-28.03 26.2H28.03C10.43 480.5 1.48 471.43 0 455.65c6.06-27.08 7.49-45.7 24.22-67.79 6.71-8.86 15.05-15.41 24.28-20.56 27.5-15.34 98.71-20.47 129.04-40.95 4.74-6.12 9.64-13.32 14.02-19.76l.47-.68c-7.81-8.49-13.93-17.26-20.26-26.82-2.85-4.26-6.33-9.47-8.35-14.95-1.86-5.04-2.68-10.01-3.17-12.99l-.02-.69c-5.16-1.31-9.25-4.81-12.33-9.52-2.85-4.35-4.85-9.76-6.01-15.36-2.09-10.05-2.62-28.11 6.84-34.33 2.52-1.66 5.51-2.29 8.96-1.65 1.04.22-2.52-7.39-3.09-9.51-5.23-19.36-3.03-33.74-2.51-53.18zm184.24 50.71c-25.56 8.75-60.51 12.15-75.21 12.85-14.62.7-61.77-4.88-88.26-14.44v54.6l-.06 7.63c-.17 16.65-.23 22.01 11.41 39.37l3.96 5.67c10.91 14.92 22.54 25.49 34.3 32.24 12.76 7.32 25.73 10.16 38.16 9.2 12.45-.96 24.43-5.73 35.19-13.6 16.13-11.79 34.04-36.71 38.65-56.44 1.65-7.11 1.86-14.6 1.86-25.96v-51.12zM309.4 315.67c-13.6 12.07-30.33 20.75-48.69 22.14-23 1.73-43.26-8.18-59.85-23.14-5.42 6.81-11.06 14.67-16.11 20.99 25.82 60.42 128.06 62.14 142.55 3.81-6.21-7.29-12.26-15.67-17.9-23.8zm39.46-107.18v29.36c4.79-2.54 7.37-10.63 7.82-19.17.22-2 .61-18.26-2.98-17.61-2.73.5-4.29 5.14-4.84 7.42zm-188.44 29.36v-29.36c-.56-2.29-2.1-6.92-4.84-7.42-3.59-.65-3.2 15.61-2.98 17.61.86 7.85 3.46 15.92 7.82 19.17zM116.77 63.7v63.51h-2.01c-1.37 0-2.49 1.13-2.49 2.49v17.07a2.51 2.51 0 0 0 2.49 2.49h2.01v5.98c-2.55.48-4.5 2.74-4.5 5.41v.01c0 3.02 2.49 5.51 5.51 5.51h9.87c3.02 0 5.51-2.48 5.51-5.51v-.01c0-2.68-1.95-4.93-4.5-5.41v-5.98h2.01c1.36 0 2.49-1.12 2.49-2.49V129.7c0-1.37-1.12-2.49-2.49-2.49h-2.01V67.39l103.96 32.34c18.83 4.47 37.65 4.77 56.48 0l114.74-34.25 10.37-3.1c12.93-5.28 9.7-17.69-2.33-20.54L282.1 3.09c-13.38-3.81-26.76-4.42-40.15 0L114.51 41.37c-13.85 3.37-16.6 16.2-.47 21.48l2.73.85z"/></svg>